<?xml version="1.0" encoding="utf-8"?>
<!-- Generator: Adobe Illustrator 16.0.0, SVG Export Plug-In . SVG Version: 6.00 Build 0)  -->
<!DOCTYPE svg PUBLIC "-//W3C//DTD SVG 1.1//EN" "http://www.w3.org/Graphics/SVG/1.1/DTD/svg11.dtd">
<svg version="1.1" id="Layer_1" xmlns="http://www.w3.org/2000/svg" xmlns:xlink="http://www.w3.org/1999/xlink" x="0px" y="0px"
	 width="339.667px" height="85.333px" viewBox="0 0 339.667 85.333" enable-background="new 0 0 339.667 85.333"
	 xml:space="preserve">
<g>
	<path fill-rule="evenodd" clip-rule="evenodd" d="M119.75,14.913h3.869c0.765,0,1.381,0.217,1.849,0.65
		c0.469,0.429,0.703,1.034,0.703,1.814c0,0.671-0.209,1.256-0.626,1.756c-0.417,0.496-1.059,0.744-1.925,0.744h-2.704v3.634h-1.165
		V14.913L119.75,14.913z M124.292,16.095c-0.257-0.121-0.611-0.181-1.059-0.181h-2.318v2.979h2.318c0.522,0,0.946-0.111,1.27-0.333
		c0.328-0.223,0.492-0.615,0.492-1.177C124.994,16.75,124.759,16.322,124.292,16.095L124.292,16.095z"/>
	<path d="M127.773,17.242h1.001v1.083c0.082-0.211,0.282-0.467,0.603-0.767c0.32-0.304,0.689-0.457,1.106-0.457
		c0.019,0,0.053,0.002,0.099,0.006c0.047,0.004,0.127,0.012,0.24,0.023v1.112c-0.063-0.012-0.121-0.02-0.176-0.023
		c-0.051-0.004-0.107-0.006-0.17-0.006c-0.531,0-0.938,0.172-1.223,0.516c-0.285,0.339-0.427,0.731-0.427,1.176v3.605h-1.054V17.242
		L127.773,17.242z"/>
	<path fill-rule="evenodd" clip-rule="evenodd" d="M135.909,22.042c0.261-0.531,0.392-1.12,0.393-1.768
		c0-0.585-0.094-1.061-0.282-1.428c-0.296-0.578-0.807-0.866-1.533-0.866c-0.644,0-1.112,0.246-1.405,0.737
		c-0.292,0.492-0.439,1.085-0.439,1.779c0,0.667,0.146,1.224,0.439,1.668c0.293,0.445,0.756,0.667,1.393,0.667
		C135.174,22.832,135.651,22.568,135.909,22.042L135.909,22.042z M136.564,17.868c0.558,0.539,0.837,1.331,0.837,2.376
		c0,1.011-0.246,1.846-0.737,2.505c-0.492,0.66-1.255,0.989-2.289,0.989c-0.863,0-1.547-0.291-2.055-0.872
		c-0.507-0.585-0.76-1.37-0.76-2.353c0-1.054,0.267-1.893,0.802-2.517c0.535-0.625,1.252-0.937,2.153-0.937
		C135.324,17.061,136.007,17.33,136.564,17.868L136.564,17.868z"/>
	<polygon points="139.421,17.242 141.094,22.346 142.845,17.242 143.998,17.242 141.633,23.511 140.509,23.511 138.198,17.242 
		139.421,17.242 	"/>
	<path fill-rule="evenodd" clip-rule="evenodd" d="M145.15,17.271h1.071v6.239h-1.071V17.271L145.15,17.271z M145.15,14.913h1.071
		v1.194h-1.071V14.913L145.15,14.913z"/>
	<path d="M148.065,17.242h1v0.89c0.296-0.367,0.611-0.63,0.942-0.791c0.332-0.159,0.701-0.239,1.107-0.24
		c0.89,0,1.49,0.31,1.802,0.93c0.172,0.34,0.257,0.826,0.257,1.458v4.021h-1.07V19.56c0-0.382-0.057-0.69-0.17-0.925
		c-0.188-0.39-0.527-0.585-1.019-0.585c-0.25,0-0.455,0.025-0.615,0.076c-0.289,0.086-0.542,0.257-0.761,0.515
		c-0.176,0.207-0.291,0.422-0.346,0.645c-0.051,0.218-0.076,0.532-0.076,0.942v3.284h-1.053V17.242L148.065,17.242z"/>
	<path d="M159.121,17.575c0.445,0.344,0.712,0.935,0.802,1.774h-1.024c-0.063-0.386-0.205-0.706-0.427-0.96
		c-0.223-0.257-0.58-0.386-1.071-0.386c-0.671,0-1.151,0.328-1.44,0.983c-0.187,0.425-0.28,0.95-0.28,1.575
		c0,0.628,0.132,1.157,0.398,1.586c0.265,0.429,0.683,0.644,1.252,0.644c0.437,0,0.782-0.133,1.036-0.398
		c0.257-0.269,0.435-0.636,0.533-1.1h1.024c-0.117,0.831-0.41,1.44-0.878,1.826c-0.468,0.382-1.067,0.573-1.797,0.573
		c-0.819,0-1.473-0.298-1.96-0.896c-0.488-0.601-0.731-1.35-0.731-2.248c0-1.1,0.267-1.957,0.802-2.569
		c0.535-0.612,1.215-0.919,2.042-0.919C158.106,17.061,158.68,17.232,159.121,17.575L159.121,17.575z"/>
	<path fill-rule="evenodd" clip-rule="evenodd" d="M165.132,17.417c0.417,0.207,0.736,0.477,0.954,0.808
		c0.211,0.316,0.351,0.685,0.421,1.106c0.062,0.289,0.093,0.75,0.094,1.382h-4.596c0.02,0.636,0.17,1.146,0.451,1.533
		c0.281,0.382,0.716,0.574,1.305,0.574c0.55,0,0.989-0.182,1.317-0.544c0.187-0.211,0.32-0.455,0.397-0.731h1.036
		c-0.027,0.23-0.119,0.488-0.275,0.772c-0.152,0.281-0.324,0.511-0.515,0.691c-0.32,0.312-0.716,0.522-1.188,0.632
		c-0.254,0.063-0.541,0.093-0.861,0.093c-0.781,0-1.441-0.283-1.984-0.848c-0.542-0.569-0.813-1.366-0.813-2.389
		c0-1.007,0.273-1.824,0.819-2.452c0.546-0.628,1.26-0.942,2.143-0.942C164.283,17.102,164.714,17.207,165.132,17.417
		L165.132,17.417z M165.518,19.876c-0.043-0.457-0.142-0.822-0.298-1.095c-0.289-0.507-0.771-0.761-1.445-0.761
		c-0.484,0-0.89,0.176-1.218,0.527c-0.328,0.347-0.501,0.791-0.521,1.329H165.518L165.518,19.876z"/>
	<path fill-rule="evenodd" clip-rule="evenodd" d="M175.649,22.042c0.261-0.531,0.392-1.12,0.392-1.768
		c0-0.585-0.094-1.061-0.28-1.428c-0.297-0.578-0.808-0.866-1.534-0.866c-0.644,0-1.111,0.246-1.404,0.737
		c-0.293,0.492-0.439,1.085-0.439,1.779c0,0.667,0.146,1.224,0.439,1.668s0.757,0.667,1.393,0.667
		C174.913,22.832,175.392,22.568,175.649,22.042L175.649,22.042z M176.305,17.868c0.558,0.539,0.837,1.331,0.837,2.376
		c0,1.011-0.246,1.846-0.737,2.505s-1.255,0.989-2.289,0.989c-0.862,0-1.547-0.291-2.054-0.872c-0.508-0.585-0.761-1.37-0.761-2.353
		c0-1.054,0.267-1.893,0.802-2.517c0.534-0.625,1.252-0.937,2.153-0.937C175.063,17.061,175.746,17.33,176.305,17.868
		L176.305,17.868z"/>
	<path d="M179.138,15.329c0.246-0.359,0.72-0.539,1.422-0.539c0.066,0,0.135,0.002,0.205,0.005c0.069,0.004,0.15,0.01,0.24,0.018
		v0.96c-0.11-0.008-0.189-0.012-0.24-0.012c-0.047-0.003-0.092-0.005-0.135-0.005c-0.32,0-0.511,0.084-0.574,0.251
		c-0.063,0.165-0.093,0.585-0.093,1.265h1.042v0.831h-1.054v5.408h-1.042v-5.408h-0.872v-0.831h0.872v-0.983
		C178.925,15.852,179.001,15.531,179.138,15.329L179.138,15.329z"/>
	<path d="M186.02,15.492h1.066v1.75h0.999v0.861h-0.999v4.091c0,0.219,0.073,0.366,0.221,0.44c0.083,0.042,0.22,0.064,0.411,0.064
		c0.05,0,0.104,0,0.164,0c0.057-0.004,0.127-0.009,0.203-0.018v0.832c-0.119,0.035-0.247,0.06-0.379,0.076
		c-0.128,0.016-0.269,0.023-0.422,0.023c-0.492,0-0.824-0.125-1.001-0.374c-0.175-0.254-0.264-0.582-0.264-0.984v-4.15h-0.85v-0.861
		h0.85V15.492L186.02,15.492z"/>
	<path d="M189.391,14.883h1.055v3.208c0.249-0.316,0.474-0.539,0.673-0.667c0.338-0.223,0.762-0.334,1.271-0.334
		c0.908,0,1.524,0.319,1.849,0.955c0.175,0.347,0.264,0.829,0.264,1.445v4.021h-1.083V19.56c0-0.46-0.058-0.797-0.177-1.012
		c-0.19-0.343-0.549-0.515-1.076-0.516c-0.437,0-0.832,0.151-1.188,0.452c-0.354,0.3-0.531,0.868-0.531,1.703v3.324h-1.055V14.883
		L189.391,14.883z"/>
	<path fill-rule="evenodd" clip-rule="evenodd" d="M200.213,17.417c0.418,0.207,0.735,0.477,0.954,0.808
		c0.211,0.316,0.352,0.685,0.421,1.106c0.063,0.289,0.095,0.75,0.095,1.382h-4.596c0.021,0.636,0.17,1.146,0.452,1.533
		c0.28,0.382,0.715,0.574,1.305,0.574c0.55,0,0.987-0.182,1.316-0.544c0.188-0.211,0.32-0.455,0.398-0.731h1.035
		c-0.026,0.23-0.119,0.488-0.274,0.772c-0.152,0.281-0.324,0.511-0.517,0.691c-0.318,0.312-0.716,0.522-1.187,0.632
		c-0.254,0.063-0.541,0.093-0.861,0.093c-0.779,0-1.44-0.283-1.983-0.848c-0.543-0.569-0.813-1.366-0.813-2.389
		c0-1.007,0.271-1.824,0.819-2.452c0.546-0.628,1.261-0.942,2.143-0.942C199.363,17.102,199.796,17.207,200.213,17.417
		L200.213,17.417z M200.6,19.876c-0.042-0.457-0.144-0.822-0.298-1.095c-0.289-0.507-0.771-0.761-1.447-0.761
		c-0.483,0-0.889,0.176-1.218,0.527c-0.327,0.347-0.501,0.791-0.521,1.329H200.6L200.6,19.876z"/>
</g>
<g>
	<path d="M97.646,72.556l0.655-2.56c0.254-0.204,0.612,0.065,0.841,0.089c-0.162-4.345,3.893-7.629,6.267-11.089
		c0.064-0.612,0.579-1.099,0.185-1.759c-0.104-0.475-0.715-0.539-1.099-0.579l-0.229-0.024c-0.595-0.217-1.388-0.764-1.936-1.44
		c-0.507-1.058-0.556-2.067-0.043-3.25l0.992-1.364c1.312,0.756,2.869,1.384,4.052,0.426c0.692-0.699,0.78-1.541,0.655-2.56
		c-0.522-0.904-0.608-2.304-0.037-3.327c0.422-0.341,1.239-0.023,1.67-0.442c-0.318-0.651-0.89-1.099-1.031-1.962
		c0.108-3.235,1.694-6.547-0.496-9.25l0,0c-0.53,5.045-4.255,9.6-1.575,14.984c-0.048,0.458-0.241,0.824-0.723,1.006
		c-0.169,0.136-0.399,0.111-0.552,0.096c-0.801-0.471-0.314-1.424-0.226-2.266c1.244-3.733-1.723-7.136-2.086-11.039
		c-0.077-1.477,0.458-2.889,1.086-4.446c0.064-0.611,0.528-1.335,0.386-2.2c-1.22-3.838,1.97-6.981,1.744-10.715
		c2.104-0.166,3.673-1.855,4.478-3.625l-2.647,0.186c-1.304,0.636-2.716,0.101-4.003,0.583c0.334-0.97,0.97-1.134,1.646-1.682
		c1.629-0.061,2.615-1.349,3.927-2.061l1.122-1.119l0.016-0.153c0.889-0.371,1.352-1.095,1.669-1.912l0.87-0.914
		c0.699-0.776,1.415-1.706,2.155-2.865l-0.152-0.016L112,8.06c-0.909,1.295-3.174,1.521-3.97,3.215
		c-1.119,0.346-2.382,0.6-3.082,1.376c-0.167,0.137-0.398,0.113-0.627,0.089c0.016-0.153,0.08-0.765,0.334-0.97
		c0.905-0.523,1.964-1.03,2.044-1.794c0.675-0.548,1.105-0.966,1.798-1.666l0.57-1.022l1.14-1.271l1.455-2.088
		c-1.557,0.841-2.679,1.96-4.413,3.014c-0.563,0.945-1.392,1.477-2.337,2.382l-0.74,1.159c-1.058,0.507-1.44,1.936-2.269,2.467
		c-0.498,0.334-0.692,0.7-0.78,1.541l-0.229-0.024c-1.246,0.101-2.664,0.338-3.379,1.268c-0.04,0.382-0.064,0.611-0.088,0.841
		c-1.915,0.571-3.814,0.99-4.984,2.567c-0.246,0.129-0.064,0.611,0.048,1.01c0.19,0.406,0.102,1.248,0.849,1.48
		c0.818,0.318,1.633,0.635,2.675,0.281c-0.764,1.388-2.281,1.847-3.532,2.72c-2.977-1.085-3.597-5.479-6.579-5.792
		c-0.229-0.024-0.483,0.181-0.636,0.165c-0.434-0.277-1.006-0.724-1.658-0.406C82.82,18.75,82.471,19.873,82,20.674
		c-0.024,0.229-0.04,0.382,0.189,0.406l0.153,0.016c0.081-0.764,0.419-1.785,1.071-2.103c0.177-0.213,0.798-0.238,1.027-0.214
		c0.89,1.098,1.85-0.045,2.954,1.001c-0.04,0.382,0.367,0.494,0.58,0.671c1.224,1.597,2.186,3.347,3.94,4.305
		c-1.099,0.889-2.302,1.432-3.27,2.567c-0.677-0.921-1.056-1.734-1.374-2.386c-0.66-1.074-0.753-3.128-1.936-3.639
		c-0.229-0.024-0.774,0.017-1.003-0.007l0.257,0.372c0.229,0.024,0.787-0.017,0.977,0.389l0.841,1.557l1.333,2.768l0.499,1.134
		c-1.163,1.501-2.213,3.4-1.931,5.13c-0.475,0.105-0.652,0.318-0.921,0.676c-1.042,0.354-1.565,0.917-2.067,2.024
		c0.141,0.865-0.624,2.253,0.306,2.969c1.308,1.529,0.48,3.528,0.439,5.379c0.085,1.399,0.363,2.435,0.846,3.722l0.229,0.024
		c0.169-0.138,0.382,0.039,0.764,0.08l0.782-1.541c-0.114-0.399-0.701-0.692-0.255-1.264c0.27-0.357,0.488-0.954,0.374-1.352
		c-1.477-1.392-1.425-4.092-1.051-5.444c0.177-0.213,0.406-0.189,0.624-0.785c0.229,0.024,0.04-0.382-0.065-0.857
		c0.169-0.137,0.627-0.089,0.805-0.302l0.982,0.954c0.636,1.304,2.406,2.108,3.794,2.872c0.153,0.016,0.153,0.016,0.137,0.169
		c0.062,1.63-1.11,3.207-2.232,4.326c-0.692,0.7-1.407,1.63-2.108,2.406c-1.686,2.063-1.943,4.51-0.953,6.856l0.713,1.312
		c0,0-0.508,0.409-0.89,0.37l-6.224,2.591c-1.034,0.278-1.734,1.055-2.45,1.985c-0.024,0.229-0.253,0.204-0.253,0.204
		c-0.016,0.153-0.169,0.137-0.04,0.382c0.817,0.318,1.348,1.146,2.318,1.481l0.512-1.184l1.722-0.205l0.932-1.525
		c1.927-2.889,6.245-0.58,7.901-3.11c-0.072-0.781-0.555-2.069,0.551-3.034c0.692-0.701,1.597-1.224,2.679-1.961l-0.024,0.23
		c0.648,1.923,1.879,3.443,2.974,4.796l2.366,2.489l0.205,0.253l1.159,0.741c-0.997,3.604-3.068,7.87-5.631,10.924
		c-0.246,0.13-0.523,0.563-0.539,0.716L97.646,72.556L97.646,72.556z"/>
	<path fill="#5B5C5E" d="M97.439,72.199c0.177-0.214,0.103-0.362,0.119-0.516l-1.324-1.131l0,0
		c-0.277,0.436-0.064,0.611-0.318,0.817L97.439,72.199L97.439,72.199z"/>
	<path fill="#C1C3C5" d="M95.543,71.24l-0.01,0.09c0.27-0.357,0.318-0.817,0.358-1.199l-0.936,0.816
		C94.943,70.945,95.533,71.267,95.543,71.24L95.543,71.24z"/>
	<path fill="#5B5C5E" d="M79.934,61.652c0.04-0.383,0.064-0.612,0.104-0.994l-0.889-1.098l-0.228-0.024
		c-0.294,0.587-0.311,0.74-0.359,1.198L79.934,61.652L79.934,61.652z"/>
	<path fill="#C1C3C5" d="M78.18,60.695c0.278-0.436,0.318-0.817,0.535-1.412l-0.869,0.913C77.821,60.425,78.204,60.465,78.18,60.695
		L78.18,60.695L78.18,60.695z"/>
	<path fill="#FFFFFF" d="M93.776,19.67l0.254-0.206C93.8,19.44,93.8,19.44,93.776,19.67L93.776,19.67L93.776,19.67z"/>
	<path fill="#5B5C5E" d="M103.464,15.742c0.153,0.016,0.382,0.04,0.382,0.04l0.909-1.296c-0.612-0.064-1.44,0.467-1.734,1.055
		C103.005,15.693,103.25,15.564,103.464,15.742L103.464,15.742z"/>
	<path fill="#C1C3C5" d="M102.626,15.3c1.018-1.593,2.788-1.208,4.305-1.667c0.245-0.129,0.856-0.064,0.905-0.523
		c-1.883,0.266-4.2-0.596-5.616,1.11c-0.016,0.153-0.082,0.146-0.105,0.375l0,0C102.091,14.824,102.498,15.055,102.626,15.3
		L102.626,15.3z"/>
	<path fill="#5B5C5E" d="M101.276,14.507c0.228,0.024,0.482-0.181,0.482-0.181c0.064-0.612,0.716-0.93,1.122-1.119l1.058-0.507
		c0.229,0.024,0.27-0.358,0.293-0.587c-0.636,0.165-1.899,0.419-2.37,1.22L101.276,14.507L101.276,14.507z"/>
	<path fill="#C1C3C5" d="M106.018,12.764c1.223,0.129,2.149,0.013,3.331-0.756c0,0,0.709-0.429,0.75-0.811l-2.347,0.513
		l-2.192,1.006C105.543,12.869,105.789,12.74,106.018,12.764L106.018,12.764L106.018,12.764z"/>
	<path fill="#C1C3C5" d="M102.984,12.213c1.312-0.712,2.276-1.117,3.378-2.118c-1.423,0.314-2.385,0.754-3.338,1.736
		C103.009,11.984,102.779,11.96,102.984,12.213L102.984,12.213L102.984,12.213z"/>
	<path fill="#C1C3C5" d="M108.51,11.235c1.265-0.254,2.812-0.387,3.345-1.8l-1.424,0.314
		C109.55,10.043,109.051,10.463,108.51,11.235L108.51,11.235z"/>
	<path fill="#C1C3C5" d="M104.569,10.37c1.923-0.648,2.546-1.222,3.804-2.602l-1.253,0.396
		C106.239,8.459,105.31,9.211,104.569,10.37L104.569,10.37L104.569,10.37z"/>
	<path fill="#C1C3C5" d="M111.395,9.297c1.033-0.278,1.62-1.453,2.489-2.366l-2.719,2.342L111.395,9.297L111.395,9.297z"/>
	<path fill="#C1C3C5" d="M107.144,7.936c0.024-0.229,0.177-0.213,0.193-0.366c1.095-0.117,1.567-0.453,2.014-1.025l1.416-1.706
		c-0.906,0.523-1.403,1.089-2.231,1.621C107.884,6.777,107.144,7.936,107.144,7.936L107.144,7.936z"/>
	<path fill-rule="evenodd" clip-rule="evenodd" fill="#936333" d="M96.33,22.104c0,0-0.268,1.085-3.527,2.717
		c0,0-2.974,1.405-4.488,3.402c0,0-1.708,1.72-1.613,3.999l1.241-0.428c0,0,0.419-2.522,2.311-4.261c0,0,2.166-1.858,2.916-2.264
		c0,0,2.967-1.845,3.332-3.222L96.33,22.104L96.33,22.104z"/>
	<path fill="#D3A26B" d="M91.96,24.845c0,0-2.173-1.618-2.819-2.916c0,0-1.41-2.314-2.27-2.591c0,0-0.742-0.339-1.134-0.156
		l-0.584-0.006c0,0-0.298-0.459-0.895-0.448c0,0-1.257-0.041-1.877,1.608l0.166,0.952l0.525,0.316l0.656,0.144
		c0,0,0.871-0.446,1.331-0.211c0,0,0.802-0.194,1.088,0.949l0.924,2.348l1.493,2.609c0,0,2.058-1.845,3.125-2.477L91.96,24.845
		L91.96,24.845z"/>
	<path fill-rule="evenodd" clip-rule="evenodd" fill="#D3A26B" d="M92.673,19.521c0,0,0.602-0.917,1.704-1.423
		c0,0,1.583-0.727,2.631-1.005L97.61,17l0.335-0.975c0,0-0.052-0.617,1.547-1.042c0,0,1.628-0.334,2.27-0.15
		c0,0,0.149,1.259,1.802,1.432c0,0-0.904,1.576,0.591,1.772c0,0-0.006,1.165,0.216,1.266l0.364,0.232c0,0,0.22,0.499-0.521,2.364
		c0,0-1.578,3.923-1.818,5.84c0,0-1.462,7.626,0.307,11.125c0,0,2.282,3.522,2.246,6.821c0,0,0.055,2.717-1.259,3.754
		c0,0-1.232,1.744-1.736,2.469c0,0-0.733,2.167,0.015,3.188c0,0,0.878,1.346,1.853,1.681c0,0,0.817,0.358,1.052,0.344
		c0,0,0.58,0.021,0.499,0.791c0,0-0.02,0.931-0.889,1.811c0,0-1.513,2.104-2.684,3.262c0,0-1.639,2.285-2.027,3.022
		c0,0-0.921,2.108-0.94,3.397l0.01,0.273l-0.649-0.107l-0.575,1.775l-1.608-1.422c0,0,3.551-4.493,5.175-10.704
		c0,0-5.879-4.775-6.459-7.76c0,0-0.835-2.03,0.937-5.583c0,0,1.72-3.705-0.178-5.701c0,0,0.956,2.437-0.264,4.796l-1.001-1.087
		c0,0,0.374-2.555-1.282-4.175c0,0-2.407-2.168-2.956-3.974c0,0,1.465-0.635,3.604,0.172c0,0,1.897,0.634,2.601-0.147
		c0,0,1.336-2.034,1.566-3.486c0,0-1.411,2.425-2.173,2.928c0,0-0.733,0.972-2.443-0.14c0,0-1.191-0.397-2.621-0.198
		c0,0-3.253,0.552-4.372,1.211c0,0,0.372,1.36-0.534,1.382c0,0-1.375,3.313,0.753,5.994c0,0,0.223,0.46-0.426,1.092
		c0,0-0.846,0.96-1.014,1.447c0,0-0.628-1.048-0.275-3.302c0,0,0.535-3.333-0.517-4.415c0,0-0.716-0.581-0.559-1.341
		c0,0-0.058-1.754,0.89-2.548c0,0,1.812-1.408,2.686-1.588l3.222-0.71l1.675-3.646l-1.763,3.01l-1.705,0.326
		c0,0,0.753-3.194,2.336-4.115c0,0,3.476-2.675,4.52-3.731c0,0,1.075-0.897,1.589-2.086c0,0,0.159-0.411,1.333-0.481
		c0,0,1.149,0.16,1.828,0.348c0,0,2.417,0.38,3.083-1.152c0.666-1.533,0.24-0.8,0.296-1.338c0,0-0.455,1.088-1.229,1.707
		c0,0-1.105,0.816-3.033,0.303c0,0-1.336-0.684-3.587,0.4c0,0-0.763,0.23-1.442,0.042l0.097-0.184l0.791-0.5
		c0,0,0.006-0.427-0.518-0.249c0,0-0.255,0.207-0.313,0.395c0,0-0.433,0.42-0.977,0.053l-0.302-0.459c0,0-0.229-0.413,0.142-0.607
		l0.928-0.33c0,0,0.453-0.612-0.162-0.677c0,0-0.431,0.033-0.625,0.401l-0.289,0.164L92.673,19.521L92.673,19.521z"/>
	<path fill="#D3A26B" d="M92.5,40.272c0,0,1.677,1.53,1.168,3.927l1.43,1.531c0,0-1.203,2.494-1.273,4.795l-0.073,0.334
		l-2.183,1.521c0,0-1.482,1.098-1.066,3.236c0,0,0.472,0.519-1.401,1.135c0,0-2.425,0.172-3.475,0.403c0,0-2.291,0.114-3.608,2.883
		l-1.626,0.428L79,59.081l2.27-1.271l3.179-1.247l3.586-1.589c0,0-2.485-2.782-1.063-6.15c0,0,1.535-3.087,2.929-4.15
		c0,0,2.291-2.282,2.55-3.935L92.5,40.272L92.5,40.272z"/>
	<path fill="#936333" d="M91.659,39.33c0,0-2.446-2.877-2.662-3.669l-1.274,0.336c0,0,1.497,2.152,3.373,3.004L91.659,39.33
		L91.659,39.33z"/>
	<path fill="none" stroke="#000000" stroke-width="0.0159" stroke-miterlimit="3.8637" d="M85.977,45.285l0.394,0.725l-0.576,1.009
		l-0.472-1.204L85.977,45.285L85.977,45.285z M84.88,46.366l0.436,0.729l-0.309,0.096L84.88,46.366L84.88,46.366z"/>
	<path fill="#D3A26B" d="M103.513,50.418l0.917-1.271c0,0,0.731,1.234,1.672,0.547c0,0,1.126-0.642,0.426-1.991
		c0,0-1.143-2.56-0.592-4.7c0,0,0.536-3.035,0.974-4.102c0,0,1.497-3.91,1.31-4.717c0,0,0.96,1.454,0.72,3.736l-0.604,3.678
		c0,0-0.159,2.319,0.753,2.903c0,0-1.426-0.119-1.651,0.992c0,0-0.402,2.018,0.179,2.947c0,0,0.421,1.162-0.309,2.166
		c0,0-0.763,1.025-2.486,0.414L103.513,50.418L103.513,50.418z"/>
	<path fill="#936333" d="M105.189,19.416c0,0,0.091,3.236-1.406,5.549c0,0-1.036,2.46-0.966,4.639c0,0-0.154,3.231-0.322,3.691
		c0,0-0.677,3.415,0.468,5.029c0,0-0.873-2.502,0.116-5.087c0,0,1.426-3.336,0.757-4.362c0,0-0.306-2.204,0.478-3.974
		c0,0,1.315-3.831,1.432-5.666L105.189,19.416L105.189,19.416z"/>
	<path fill="#965C0F" d="M106.498,16.167c0,0-1.529-0.221-2.226,0.398c0,0-0.933,0.864,0.099,1.063c0,0,1.184-1.079,1.837-1.281
		L106.498,16.167L106.498,16.167z"/>
	<path fill="#C1C3C5" d="M109.993,15.692c0,0-2.011,0.089-3.449,0.9c0,0-1.609,0.884-1.731,1.473c0,0-0.361,0.684,0.327,0.727
		c0,0,1.719-0.181,2.72-0.828c0,0,1.473-0.852,2.052-2.07L109.993,15.692L109.993,15.692z"/>
	<path fill="#FFFFFF" d="M93.536,19.645l0.253-0.206C93.56,19.415,93.56,19.415,93.536,19.645L93.536,19.645L93.536,19.645z"/>
	<path fill="#965C0F" d="M103.513,50.418l1.309,0.603c1.724,0.611,2.486-0.414,2.486-0.414c0.73-1.004,0.309-2.166,0.309-2.166
		c-0.581-0.93-0.179-2.947-0.179-2.947c0.226-1.111,1.651-0.992,1.651-0.992c-0.912-0.584-0.753-2.903-0.753-2.903l0.604-3.678
		c0.072-0.684,0.036-1.293-0.05-1.812c-1.013,2.209-3.242,7.682-2.233,11.102c1.07,3.623-1.008,3.446-2.73,2.633L103.513,50.418
		L103.513,50.418z"/>
	<path fill="#936333" d="M103.513,50.418l1.309,0.603c1.724,0.611,2.486-0.414,2.486-0.414c0.73-1.004,0.328-2.188,0.328-2.188
		c-0.365-1.006-0.198-2.925-0.198-2.925c0.226-1.111,1.651-0.992,1.651-0.992c-0.405-0.493-0.707-1.313-0.75-2.035
		c-0.622,0.463-1.491,1.455-1.44,3.371c0.079,2.967,1.195,5.035-1.417,4.826c-0.916-0.073-1.538-0.168-1.959-0.26L103.513,50.418
		L103.513,50.418z"/>
	<path fill="#FFFFFF" d="M91.376,35.497c-0.874,0.012-1.395,0.237-1.395,0.237c0.548,1.806,2.956,3.974,2.956,3.974
		c1.656,1.621,1.282,4.175,1.282,4.175l1.001,1.087c1.22-2.359,0.264-4.796,0.264-4.796c-0.333-0.683-0.85-1.41-1.6-2.143
		C92.946,37.114,92.053,36.3,91.376,35.497L91.376,35.497z M94.158,24.99c-1.262,1.031-3.243,2.67-3.243,2.67
		c-1.583,0.921-2.336,4.115-2.336,4.115l1.705-0.326l0.933-1.593C91.927,28.249,92.566,26.686,94.158,24.99L94.158,24.99z"/>
	<path fill="#965C0F" d="M103.585,19.435c0.064,0.1,0.188-0.042-0.318,1.122c-0.19,0.437-0.522,0.718-0.9,0.897
		c-0.312,1.306-1.438,4.906-4.695,6.745c0,0,1.372,1.608,0.029,4.334c-0.048,0.205-0.113,0.417-0.189,0.631
		c0.007,0.929,0.154,3.987,1.726,5.785c1.869,2.138,2.867,7.788,1.166,11.225c-1.702,3.439,0.386,6.689,2.451,7.912
		c0.997,0.59,1.192,1.49,1.101,2.345c0.321-0.422,0.528-0.71,0.528-0.71c0.87-0.88,0.889-1.811,0.889-1.811
		c0.081-0.77-0.499-0.791-0.499-0.791c-0.235,0.015-1.052-0.344-1.052-0.344c-0.975-0.335-1.853-1.681-1.853-1.681
		c-0.748-1.021-0.015-3.188-0.015-3.188c0.503-0.725,1.736-2.469,1.736-2.469c1.313-1.037,1.259-3.754,1.259-3.754
		c0.036-3.298-2.246-6.821-2.246-6.821c-1.769-3.498-0.307-11.125-0.307-11.125c0.241-1.917,1.818-5.84,1.818-5.84
		c0.74-1.865,0.521-2.364,0.521-2.364l-0.364-0.232c-0.16-0.073-0.202-0.697-0.212-1.041
		C104.028,18.556,103.827,18.991,103.585,19.435L103.585,19.435z"/>
	<path fill="#936333" d="M103.637,19.614c-0.026,0.114-0.106,0.331-0.293,0.768c0.244,0.057,0.521,0.226,0.368,0.715
		c-0.253,0.811-4.261,10.907-2.324,15.733s4.075,8.401,2.717,10.955s-3.657,4.707-2.723,6.781c1.426,3.166,3.157,1.991,3.613,3.228
		c0.092,0.248,0.159,0.534,0.208,0.834c0.163-0.419,0.169-0.717,0.169-0.717c0.081-0.77-0.499-0.791-0.499-0.791
		c-0.235,0.015-1.052-0.344-1.052-0.344c-0.975-0.335-1.853-1.681-1.853-1.681c-0.748-1.021-0.015-3.188-0.015-3.188
		c0.503-0.725,1.736-2.469,1.736-2.469c1.313-1.037,1.259-3.754,1.259-3.754c0.036-3.298-2.246-6.821-2.246-6.821
		c-1.769-3.498-0.307-11.125-0.307-11.125c0.241-1.917,1.818-5.84,1.818-5.84c0.74-1.865,0.521-2.364,0.521-2.364l-0.364-0.232
		c-0.111-0.05-0.165-0.365-0.191-0.668C104.046,18.928,103.867,19.271,103.637,19.614L103.637,19.614z"/>
	<path fill="#965C0F" d="M103.457,16.488c0.057-0.136,0.107-0.223,0.107-0.223c-1.653-0.173-1.802-1.432-1.802-1.432
		c-0.641-0.185-2.27,0.15-2.27,0.15c-1.599,0.424-1.547,1.042-1.547,1.042L97.61,17l-0.602,0.092
		c-0.48,0.127-1.072,0.349-1.573,0.552c1.413-0.435,2.692-0.654,4.551-0.518C101.751,17.255,103.058,16.688,103.457,16.488
		L103.457,16.488z"/>
	<path fill="none" stroke="#000000" stroke-width="0.0159" stroke-miterlimit="3.8637" d="M100.326,17.653
		c0.613,0.065,1.134-0.499,1.517-0.458c-0.189-0.406-0.278-1.034-0.865-1.328c-0.841-0.088-1.54,0.688-1.987,1.26l0,0
		c0.153,0.016,0.153,0.016,0.383,0.04c0.205,0.253,0.586,0.293,0.969,0.334L100.326,17.653L100.326,17.653z M100.366,17.271
		c-0.153-0.016-0.129-0.246-0.588-0.293l-0.153-0.016C99.754,17.207,100.213,17.255,100.366,17.271L100.366,17.271L100.366,17.271z
		 M100.979,17.335c0,0,0.024-0.229-0.13-0.246L100.979,17.335L100.979,17.335z M100.39,17.042l0.016-0.153L100.39,17.042
		L100.39,17.042z M101.477,17.001c0.024-0.229-0.182-0.483-0.37-0.889c-0.383-0.041-1.035,0.277-1.288,0.483L101.477,17.001
		L101.477,17.001z"/>
	<path d="M101.863,17.183c0,0-0.229-1.257-0.946-1.302c0,0-0.884-0.183-1.899,1.184c0,0,0.878,0.514,1.308,0.438l0.008,0.211
		c0,0,0.789-0.271,1.379-0.45L101.863,17.183L101.863,17.183z"/>
	<path fill-rule="evenodd" clip-rule="evenodd" fill="#965C0F" d="M100.513,17.218c0,0-0.442-0.377-0.775-0.352
		C99.901,17.605,100.513,17.218,100.513,17.218L100.513,17.218z"/>
	<path fill="#FFFFFF" d="M101.406,16.955l-1.496-0.367c0,0,0.055-0.235,0.671-0.381c0,0,0.629-0.265,0.822,0.478L101.406,16.955
		L101.406,16.955z"/>
	<path d="M84.56,21.464c0,0-1.616-0.103-2.274-0.88c0,0-0.896,1.483-1.201,2.042l3.229,0.241L84.56,21.464L84.56,21.464z"/>
	<path fill="#C1C3C5" d="M83.573,21.697c-0.146-0.037-0.306-0.084-0.47-0.143l-0.378,0.801l1.263,0.095l0.113-0.645
		C83.949,21.78,83.767,21.746,83.573,21.697L83.573,21.697z"/>
	<path fill="#C1C3C5" d="M82.88,21.464c-0.172-0.075-0.342-0.165-0.5-0.274c-0.182,0.303-0.434,0.727-0.646,1.09l0.702,0.053
		L82.88,21.464L82.88,21.464z"/>
	<path fill="#965C0F" d="M84.485,21.49c0.206-0.035,0.414-0.035,0.572,0.046c0,0,0.802-0.194,1.088,0.949l0.924,2.348l1.493,2.609
		c0,0,0.679-0.608,1.459-1.247c-0.565-0.54-1.917-1.87-2.267-2.553c-0.445-0.87-1.614-2.92-2.935-2.561
		c-0.321,0.087-0.574,0.207-0.773,0.344C84.194,21.457,84.35,21.477,84.485,21.49L84.485,21.49z"/>
	<path fill="#936333" d="M85.057,21.537c0,0,0.802-0.194,1.088,0.949l0.924,2.348l1.493,2.609c0,0,0.281-0.252,0.689-0.602
		c-0.463-0.599-1.5-1.968-1.935-2.779C86.748,23.001,85.955,21.166,85.057,21.537L85.057,21.537z"/>
	<path fill="#936333" d="M79.676,59.752l0.717,0.714l1.626-0.428c1.317-2.769,3.608-2.883,3.608-2.883
		c1.05-0.231,3.475-0.403,3.475-0.403c1.873-0.616,1.401-1.135,1.401-1.135c-0.416-2.139,1.066-3.236,1.066-3.236l2.183-1.521
		l0.073-0.334c0.071-2.301,1.273-4.795,1.273-4.795l-1.43-1.531c0.15-0.708,0.11-1.34-0.022-1.88
		c-0.229,0.632-0.909,2.161-2.491,3.493c-2.053,1.727-3.298,3.547-3.307,5.683c-0.009,2.436,1.039,3.234,0.354,3.655
		s-4.433,1.681-6.018,3.625C81.489,59.63,80.429,59.658,79.676,59.752L79.676,59.752z"/>
	<path fill="#965C0F" d="M92.532,49.329c1.213-0.791,2.021-2.547,2.542-3.624l-1.251-1.341c-0.375,0.608-0.955,1.43-1.615,1.954
		c-1.153,0.912-2.873,4.26-2.744,6.208C89.56,53.963,90.84,50.431,92.532,49.329L92.532,49.329z"/>
	<path d="M28.776,72.556l-0.655-2.56c-0.253-0.204-0.611,0.065-0.841,0.089c0.161-4.345-3.894-7.629-6.267-11.089
		c-0.064-0.612-0.58-1.099-0.185-1.759c0.105-0.475,0.715-0.539,1.099-0.579l0.229-0.024c0.596-0.217,1.389-0.764,1.936-1.44
		c0.507-1.058,0.556-2.067,0.044-3.25l-0.993-1.364c-1.312,0.756-2.869,1.384-4.051,0.426c-0.692-0.699-0.781-1.541-0.656-2.56
		c0.522-0.904,0.608-2.304,0.037-3.327c-0.422-0.341-1.239-0.023-1.669-0.442c0.318-0.651,0.889-1.099,1.03-1.962
		c-0.108-3.235-1.694-6.547,0.497-9.25l0,0c0.53,5.045,4.255,9.6,1.575,14.984c0.048,0.458,0.241,0.824,0.723,1.006
		c0.169,0.136,0.399,0.111,0.552,0.096c0.801-0.471,0.314-1.424,0.226-2.266c-1.244-3.733,1.723-7.136,2.086-11.039
		c0.077-1.477-0.458-2.889-1.085-4.446c-0.064-0.611-0.528-1.335-0.386-2.2c1.22-3.838-1.97-6.981-1.744-10.715
		c-2.104-0.166-3.673-1.855-4.478-3.625l2.647,0.186c1.303,0.636,2.715,0.101,4.003,0.583c-0.334-0.97-0.969-1.134-1.646-1.682
		c-1.629-0.061-2.615-1.349-3.927-2.061l-1.121-1.119l-0.017-0.153c-0.889-0.371-1.352-1.095-1.669-1.912l-0.87-0.914
		c-0.699-0.776-1.415-1.706-2.155-2.865l0.152-0.016l3.227,2.753c0.909,1.295,3.174,1.521,3.971,3.215
		c1.119,0.346,2.382,0.6,3.082,1.376c0.168,0.137,0.398,0.113,0.628,0.089c-0.016-0.153-0.081-0.765-0.334-0.97
		c-0.905-0.523-1.964-1.03-2.044-1.794c-0.675-0.548-1.105-0.966-1.798-1.666l-0.57-1.022l-1.14-1.271l-1.456-2.088
		c1.557,0.841,2.68,1.96,4.413,3.014c0.563,0.945,1.392,1.477,2.337,2.382l0.74,1.159c1.058,0.507,1.44,1.936,2.269,2.467
		c0.498,0.334,0.692,0.7,0.78,1.541l0.229-0.024c1.247,0.101,2.664,0.338,3.379,1.268c0.041,0.382,0.064,0.611,0.088,0.841
		c1.915,0.571,3.814,0.99,4.985,2.567c0.245,0.129,0.064,0.611-0.048,1.01c-0.19,0.406-0.102,1.248-0.849,1.48
		c-0.818,0.318-1.634,0.635-2.676,0.281c0.764,1.388,2.281,1.847,3.532,2.72c2.977-1.085,3.598-5.479,6.579-5.792
		c0.229-0.024,0.482,0.181,0.635,0.165c0.434-0.277,1.006-0.724,1.658-0.406c0.789,0.149,1.139,1.272,1.609,2.073
		c0.024,0.229,0.04,0.382-0.189,0.406l-0.153,0.016c-0.081-0.764-0.419-1.785-1.071-2.103c-0.177-0.213-0.798-0.238-1.027-0.214
		c-0.889,1.098-1.85-0.045-2.954,1.001c0.04,0.382-0.367,0.494-0.58,0.671c-1.225,1.597-2.186,3.347-3.94,4.305
		c1.099,0.889,2.302,1.432,3.27,2.567c0.677-0.921,1.056-1.734,1.374-2.386c0.66-1.074,0.753-3.128,1.936-3.639
		c0.229-0.024,0.774,0.017,1.004-0.007l-0.257,0.372c-0.229,0.024-0.787-0.017-0.976,0.389l-0.841,1.557l-1.332,2.768l-0.499,1.134
		c1.162,1.501,2.212,3.4,1.93,5.13c0.475,0.105,0.652,0.318,0.921,0.676c1.042,0.354,1.565,0.917,2.067,2.024
		c-0.141,0.865,0.624,2.253-0.306,2.969c-1.308,1.529-0.48,3.528-0.439,5.379c-0.085,1.399-0.363,2.435-0.846,3.722l-0.229,0.024
		c-0.169-0.138-0.382,0.039-0.764,0.08l-0.782-1.541c0.114-0.399,0.702-0.692,0.255-1.264c-0.27-0.357-0.487-0.954-0.374-1.352
		c1.477-1.392,1.425-4.092,1.051-5.444c-0.177-0.213-0.407-0.189-0.624-0.785c-0.229,0.024-0.041-0.382,0.064-0.857
		c-0.169-0.137-0.627-0.089-0.805-0.302l-0.981,0.954c-0.636,1.304-2.407,2.108-3.795,2.872c-0.153,0.016-0.153,0.016-0.137,0.169
		c-0.062,1.63,1.11,3.207,2.232,4.326c0.692,0.7,1.407,1.63,2.107,2.406c1.686,2.063,1.943,4.51,0.953,6.856l-0.713,1.312
		c0,0,0.508,0.409,0.89,0.37l6.224,2.591c1.034,0.278,1.734,1.055,2.45,1.985c0.024,0.229,0.253,0.204,0.253,0.204
		c0.016,0.153,0.169,0.137,0.04,0.382c-0.817,0.318-1.348,1.146-2.317,1.481L46,60.698l-1.722-0.205l-0.932-1.525
		c-1.927-2.889-6.244-0.58-7.901-3.11c0.072-0.781,0.556-2.069-0.551-3.034c-0.692-0.701-1.597-1.224-2.679-1.961l0.024,0.23
		c-0.648,1.923-1.879,3.443-2.974,4.796l-2.366,2.489l-0.205,0.253l-1.159,0.741c0.997,3.604,3.069,7.87,5.631,10.924
		c0.246,0.13,0.523,0.563,0.539,0.716L28.776,72.556L28.776,72.556z"/>
	<path fill="#5B5C5E" d="M28.983,72.199c-0.177-0.214-0.103-0.362-0.119-0.516l1.324-1.131l0,0c0.277,0.436,0.064,0.611,0.318,0.817
		L28.983,72.199L28.983,72.199z"/>
	<path fill="#C1C3C5" d="M30.879,71.24l0.009,0.09c-0.27-0.357-0.318-0.817-0.358-1.199l0.936,0.816
		C31.479,70.945,30.889,71.267,30.879,71.24L30.879,71.24z"/>
	<path fill="#5B5C5E" d="M46.488,61.652c-0.04-0.383-0.064-0.612-0.104-0.994l0.889-1.098l0.228-0.024
		c0.295,0.587,0.311,0.74,0.359,1.198L46.488,61.652L46.488,61.652z"/>
	<path fill="#C1C3C5" d="M48.243,60.695c-0.277-0.436-0.318-0.817-0.535-1.412l0.869,0.913
		C48.601,60.425,48.219,60.465,48.243,60.695L48.243,60.695L48.243,60.695z"/>
	<path fill="#FFFFFF" d="M32.646,19.67l-0.253-0.206C32.623,19.44,32.623,19.44,32.646,19.67L32.646,19.67L32.646,19.67z"/>
	<path fill="#5B5C5E" d="M22.959,15.742c-0.153,0.016-0.382,0.04-0.382,0.04l-0.909-1.296c0.612-0.064,1.44,0.467,1.734,1.055
		C23.417,15.693,23.172,15.564,22.959,15.742L22.959,15.742z"/>
	<path fill="#C1C3C5" d="M23.796,15.3c-1.018-1.593-2.788-1.208-4.305-1.667c-0.246-0.129-0.857-0.064-0.905-0.523
		c1.883,0.266,4.199-0.596,5.615,1.11c0.016,0.153,0.082,0.146,0.106,0.375l0,0C24.331,14.824,23.924,15.055,23.796,15.3
		L23.796,15.3z"/>
	<path fill="#5B5C5E" d="M25.147,14.507c-0.229,0.024-0.482-0.181-0.482-0.181c-0.064-0.612-0.716-0.93-1.123-1.119L22.485,12.7
		c-0.23,0.024-0.27-0.358-0.294-0.587c0.636,0.165,1.899,0.419,2.37,1.22L25.147,14.507L25.147,14.507z"/>
	<path fill="#C1C3C5" d="M20.405,12.764c-1.224,0.129-2.15,0.013-3.331-0.756c0,0-0.709-0.429-0.75-0.811l2.347,0.513l2.192,1.006
		C20.879,12.869,20.634,12.74,20.405,12.764L20.405,12.764L20.405,12.764z"/>
	<path fill="#C1C3C5" d="M23.438,12.213c-1.312-0.712-2.276-1.117-3.378-2.118c1.423,0.314,2.385,0.754,3.338,1.736
		C23.414,11.984,23.644,11.96,23.438,12.213L23.438,12.213L23.438,12.213z"/>
	<path fill="#C1C3C5" d="M17.912,11.235c-1.264-0.254-2.812-0.387-3.345-1.8l1.425,0.314C16.872,10.043,17.372,10.463,17.912,11.235
		L17.912,11.235z"/>
	<path fill="#C1C3C5" d="M21.854,10.37c-1.923-0.648-2.546-1.222-3.804-2.602l1.253,0.396C20.184,8.459,21.113,9.211,21.854,10.37
		L21.854,10.37L21.854,10.37z"/>
	<path fill="#C1C3C5" d="M15.028,9.297c-1.033-0.278-1.62-1.453-2.489-2.366l2.72,2.342L15.028,9.297L15.028,9.297z"/>
	<path fill="#C1C3C5" d="M19.279,7.936c-0.024-0.229-0.177-0.213-0.193-0.366c-1.094-0.117-1.567-0.453-2.014-1.025l-1.416-1.706
		c0.905,0.523,1.402,1.089,2.231,1.621C18.539,6.777,19.279,7.936,19.279,7.936L19.279,7.936z"/>
	<path fill-rule="evenodd" clip-rule="evenodd" fill="#936333" d="M30.093,22.104c0,0,0.268,1.085,3.527,2.717
		c0,0,2.975,1.405,4.488,3.402c0,0,1.708,1.72,1.612,3.999l-1.241-0.428c0,0-0.418-2.522-2.311-4.261c0,0-2.166-1.858-2.916-2.264
		c0,0-2.968-1.845-3.332-3.222L30.093,22.104L30.093,22.104z"/>
	<path fill="#D3A26B" d="M34.462,24.845c0,0,2.173-1.618,2.819-2.916c0,0,1.41-2.314,2.271-2.591c0,0,0.742-0.339,1.134-0.156
		l0.584-0.006c0,0,0.298-0.459,0.896-0.448c0,0,1.256-0.041,1.877,1.608l-0.166,0.952l-0.526,0.316l-0.656,0.144
		c0,0-0.871-0.446-1.331-0.211c0,0-0.802-0.194-1.087,0.949l-0.924,2.348l-1.493,2.609c0,0-2.058-1.845-3.125-2.477L34.462,24.845
		L34.462,24.845z"/>
	<path fill-rule="evenodd" clip-rule="evenodd" fill="#D3A26B" d="M33.75,19.521c0,0-0.602-0.917-1.704-1.423
		c0,0-1.583-0.727-2.631-1.005L28.813,17l-0.335-0.975c0,0,0.052-0.617-1.547-1.042c0,0-1.628-0.334-2.27-0.15
		c0,0-0.149,1.259-1.802,1.432c0,0,0.904,1.576-0.59,1.772c0,0,0.005,1.165-0.217,1.266l-0.364,0.232c0,0-0.219,0.499,0.521,2.364
		c0,0,1.578,3.923,1.818,5.84c0,0,1.462,7.626-0.307,11.125c0,0-2.281,3.522-2.246,6.821c0,0-0.055,2.717,1.259,3.754
		c0,0,1.232,1.744,1.736,2.469c0,0,0.732,2.167-0.015,3.188c0,0-0.878,1.346-1.854,1.681c0,0-0.817,0.358-1.052,0.344
		c0,0-0.581,0.021-0.5,0.791c0,0,0.02,0.931,0.89,1.811c0,0,1.513,2.104,2.684,3.262c0,0,1.639,2.285,2.027,3.022
		c0,0,0.921,2.108,0.94,3.397l-0.01,0.273l0.649-0.107l0.575,1.775l1.608-1.422c0,0-3.551-4.493-5.175-10.704
		c0,0,5.88-4.775,6.459-7.76c0,0,0.835-2.03-0.937-5.583c0,0-1.72-3.705,0.178-5.701c0,0-0.956,2.437,0.264,4.796l1.001-1.087
		c0,0-0.374-2.555,1.282-4.175c0,0,2.407-2.168,2.956-3.974c0,0-1.465-0.635-3.604,0.172c0,0-1.896,0.634-2.6-0.147
		c0,0-1.336-2.034-1.567-3.486c0,0,1.411,2.425,2.173,2.928c0,0,0.733,0.972,2.443-0.14c0,0,1.192-0.397,2.621-0.198
		c0,0,3.253,0.552,4.372,1.211c0,0-0.372,1.36,0.534,1.382c0,0,1.375,3.313-0.752,5.994c0,0-0.224,0.46,0.426,1.092
		c0,0,0.846,0.96,1.014,1.447c0,0,0.628-1.048,0.275-3.302c0,0-0.536-3.333,0.516-4.415c0,0,0.716-0.581,0.559-1.341
		c0,0,0.058-1.754-0.89-2.548c0,0-1.812-1.408-2.686-1.588l-3.222-0.71l-1.675-3.646l1.764,3.01l1.705,0.326
		c0,0-0.753-3.194-2.336-4.115c0,0-3.477-2.675-4.52-3.731c0,0-1.075-0.897-1.589-2.086c0,0-0.16-0.411-1.333-0.481
		c0,0-1.149,0.16-1.829,0.348c0,0-2.417,0.38-3.083-1.152c-0.666-1.533-0.239-0.8-0.296-1.338c0,0,0.454,1.088,1.228,1.707
		c0,0,1.105,0.816,3.033,0.303c0,0,1.336-0.684,3.587,0.4c0,0,0.763,0.23,1.442,0.042l-0.097-0.184l-0.791-0.5
		c0,0-0.006-0.427,0.518-0.249c0,0,0.255,0.207,0.313,0.395c0,0,0.433,0.42,0.977,0.053l0.301-0.459c0,0,0.229-0.413-0.142-0.607
		l-0.928-0.33c0,0-0.453-0.612,0.162-0.677c0,0,0.431,0.033,0.625,0.401l0.289,0.164L33.75,19.521L33.75,19.521z"/>
	<path fill="#D3A26B" d="M33.922,40.272c0,0-1.677,1.53-1.168,3.927l-1.43,1.531c0,0,1.203,2.494,1.273,4.795l0.074,0.334
		l2.182,1.521c0,0,1.483,1.098,1.066,3.236c0,0-0.472,0.519,1.401,1.135c0,0,2.425,0.172,3.475,0.403c0,0,2.291,0.114,3.607,2.883
		l1.626,0.428l1.393-1.386l-2.271-1.271l-3.179-1.247l-3.586-1.589c0,0,2.485-2.782,1.063-6.15c0,0-1.535-3.087-2.928-4.15
		c0,0-2.292-2.282-2.55-3.935L33.922,40.272L33.922,40.272z"/>
	<path fill="#936333" d="M34.763,39.33c0,0,2.446-2.877,2.662-3.669l1.275,0.336c0,0-1.497,2.152-3.374,3.004L34.763,39.33
		L34.763,39.33z"/>
	<path fill="none" stroke="#000000" stroke-width="0.0159" stroke-miterlimit="3.8637" d="M40.446,45.285l-0.394,0.725l0.576,1.009
		l0.472-1.204L40.446,45.285L40.446,45.285z M41.542,46.366l-0.436,0.729l0.31,0.096L41.542,46.366L41.542,46.366z"/>
	<path fill="#D3A26B" d="M22.91,50.418l-0.917-1.271c0,0-0.731,1.234-1.672,0.547c0,0-1.126-0.642-0.426-1.991
		c0,0,1.143-2.56,0.591-4.7c0,0-0.536-3.035-0.974-4.102c0,0-1.497-3.91-1.31-4.717c0,0-0.96,1.454-0.721,3.736l0.604,3.678
		c0,0,0.159,2.319-0.753,2.903c0,0,1.426-0.119,1.651,0.992c0,0,0.402,2.018-0.179,2.947c0,0-0.421,1.162,0.309,2.166
		c0,0,0.763,1.025,2.486,0.414L22.91,50.418L22.91,50.418z"/>
	<path fill="#936333" d="M21.233,19.416c0,0-0.091,3.236,1.407,5.549c0,0,1.035,2.46,0.966,4.639c0,0,0.154,3.231,0.322,3.691
		c0,0,0.677,3.415-0.468,5.029c0,0,0.873-2.502-0.116-5.087c0,0-1.426-3.336-0.757-4.362c0,0,0.307-2.204-0.477-3.974
		c0,0-1.315-3.831-1.433-5.666L21.233,19.416L21.233,19.416z"/>
	<path fill="#965C0F" d="M19.925,16.167c0,0,1.528-0.221,2.226,0.398c0,0,0.933,0.864-0.099,1.063c0,0-1.184-1.079-1.837-1.281
		L19.925,16.167L19.925,16.167z"/>
	<path fill="#C1C3C5" d="M16.43,15.692c0,0,2.011,0.089,3.45,0.9c0,0,1.608,0.884,1.73,1.473c0,0,0.361,0.684-0.327,0.727
		c0,0-1.719-0.181-2.719-0.828c0,0-1.474-0.852-2.053-2.07L16.43,15.692L16.43,15.692z"/>
	<path fill="#FFFFFF" d="M32.886,19.645l-0.253-0.206C32.862,19.415,32.862,19.415,32.886,19.645L32.886,19.645L32.886,19.645z"/>
	<path fill="#965C0F" d="M22.91,50.418l-1.31,0.603c-1.723,0.611-2.486-0.414-2.486-0.414c-0.73-1.004-0.309-2.166-0.309-2.166
		c0.581-0.93,0.179-2.947,0.179-2.947c-0.225-1.111-1.651-0.992-1.651-0.992c0.912-0.584,0.753-2.903,0.753-2.903l-0.604-3.678
		c-0.072-0.684-0.036-1.293,0.05-1.812c1.013,2.209,3.242,7.682,2.233,11.102c-1.07,3.623,1.008,3.446,2.731,2.633L22.91,50.418
		L22.91,50.418z"/>
	<path fill="#936333" d="M22.91,50.418l-1.31,0.603c-1.723,0.611-2.486-0.414-2.486-0.414c-0.73-1.004-0.328-2.188-0.328-2.188
		c0.365-1.006,0.198-2.925,0.198-2.925c-0.225-1.111-1.651-0.992-1.651-0.992c0.405-0.493,0.707-1.313,0.75-2.035
		c0.623,0.463,1.491,1.455,1.44,3.371c-0.079,2.967-1.194,5.035,1.417,4.826c0.916-0.073,1.538-0.168,1.959-0.26L22.91,50.418
		L22.91,50.418z"/>
	<path fill="#FFFFFF" d="M35.047,35.497c0.874,0.012,1.394,0.237,1.394,0.237c-0.548,1.806-2.956,3.974-2.956,3.974
		c-1.656,1.621-1.282,4.175-1.282,4.175l-1.001,1.087c-1.219-2.359-0.264-4.796-0.264-4.796c0.333-0.683,0.85-1.41,1.6-2.143
		C33.477,37.114,34.369,36.3,35.047,35.497L35.047,35.497z M32.265,24.99c1.263,1.031,3.244,2.67,3.244,2.67
		c1.583,0.921,2.336,4.115,2.336,4.115L36.14,31.45l-0.933-1.593C34.496,28.249,33.856,26.686,32.265,24.99L32.265,24.99z"/>
	<path fill="#965C0F" d="M22.837,19.435c-0.064,0.1-0.188-0.042,0.317,1.122c0.19,0.437,0.522,0.718,0.9,0.897
		c0.312,1.306,1.439,4.906,4.695,6.745c0,0-1.372,1.608-0.029,4.334c0.047,0.205,0.112,0.417,0.189,0.631
		c-0.007,0.929-0.155,3.987-1.727,5.785c-1.869,2.138-2.867,7.788-1.166,11.225c1.702,3.439-0.386,6.689-2.451,7.912
		c-0.997,0.59-1.192,1.49-1.101,2.345c-0.32-0.422-0.528-0.71-0.528-0.71c-0.87-0.88-0.89-1.811-0.89-1.811
		c-0.081-0.77,0.5-0.791,0.5-0.791c0.234,0.015,1.052-0.344,1.052-0.344c0.975-0.335,1.854-1.681,1.854-1.681
		c0.747-1.021,0.015-3.188,0.015-3.188c-0.504-0.725-1.736-2.469-1.736-2.469c-1.313-1.037-1.259-3.754-1.259-3.754
		c-0.036-3.298,2.246-6.821,2.246-6.821c1.769-3.498,0.307-11.125,0.307-11.125c-0.241-1.917-1.818-5.84-1.818-5.84
		c-0.74-1.865-0.521-2.364-0.521-2.364l0.364-0.232c0.16-0.073,0.202-0.697,0.213-1.041C22.394,18.556,22.595,18.991,22.837,19.435
		L22.837,19.435z"/>
	<path fill="#936333" d="M22.786,19.614c0.026,0.114,0.106,0.331,0.294,0.768c-0.244,0.057-0.521,0.226-0.369,0.715
		c0.253,0.811,4.261,10.907,2.324,15.733s-4.074,8.401-2.717,10.955c1.357,2.554,3.658,4.707,2.723,6.781
		c-1.426,3.166-3.157,1.991-3.613,3.228c-0.092,0.248-0.16,0.534-0.209,0.834c-0.163-0.419-0.169-0.717-0.169-0.717
		c-0.081-0.77,0.5-0.791,0.5-0.791c0.234,0.015,1.052-0.344,1.052-0.344c0.975-0.335,1.854-1.681,1.854-1.681
		c0.747-1.021,0.015-3.188,0.015-3.188c-0.504-0.725-1.736-2.469-1.736-2.469c-1.313-1.037-1.259-3.754-1.259-3.754
		c-0.036-3.298,2.246-6.821,2.246-6.821c1.769-3.498,0.307-11.125,0.307-11.125c-0.241-1.917-1.818-5.84-1.818-5.84
		c-0.74-1.865-0.521-2.364-0.521-2.364l0.364-0.232c0.111-0.05,0.165-0.365,0.191-0.668C22.376,18.928,22.555,19.271,22.786,19.614
		L22.786,19.614z"/>
	<path fill="#965C0F" d="M22.966,16.488c-0.057-0.136-0.107-0.223-0.107-0.223c1.653-0.173,1.802-1.432,1.802-1.432
		c0.641-0.185,2.27,0.15,2.27,0.15c1.599,0.424,1.547,1.042,1.547,1.042L28.813,17l0.602,0.092c0.48,0.127,1.072,0.349,1.573,0.552
		c-1.413-0.435-2.692-0.654-4.551-0.518C24.671,17.255,23.365,16.688,22.966,16.488L22.966,16.488z"/>
	<path fill="none" stroke="#000000" stroke-width="0.0159" stroke-miterlimit="3.8637" d="M26.097,17.653
		c-0.612,0.065-1.134-0.499-1.517-0.458c0.189-0.406,0.278-1.034,0.865-1.328c0.841-0.088,1.54,0.688,1.987,1.26l0,0
		c-0.153,0.016-0.153,0.016-0.383,0.04c-0.204,0.253-0.586,0.293-0.969,0.334L26.097,17.653L26.097,17.653z M26.057,17.271
		c0.153-0.016,0.129-0.246,0.587-0.293l0.153-0.016C26.668,17.207,26.209,17.255,26.057,17.271L26.057,17.271L26.057,17.271z
		 M25.444,17.335c0,0-0.024-0.229,0.13-0.246L25.444,17.335L25.444,17.335z M26.032,17.042l-0.016-0.153L26.032,17.042
		L26.032,17.042z M24.946,17.001c-0.024-0.229,0.181-0.483,0.369-0.889c0.383-0.041,1.035,0.277,1.289,0.483L24.946,17.001
		L24.946,17.001z"/>
	<path d="M24.56,17.183c0,0,0.229-1.257,0.946-1.302c0,0,0.883-0.183,1.899,1.184c0,0-0.878,0.514-1.307,0.438l-0.008,0.211
		c0,0-0.789-0.271-1.379-0.45L24.56,17.183L24.56,17.183z"/>
	<path fill-rule="evenodd" clip-rule="evenodd" fill="#965C0F" d="M25.91,17.218c0,0,0.441-0.377,0.775-0.352
		C26.521,17.605,25.91,17.218,25.91,17.218L25.91,17.218z"/>
	<path fill="#FFFFFF" d="M25.017,16.955l1.496-0.367c0,0-0.055-0.235-0.672-0.381c0,0-0.629-0.265-0.822,0.478L25.017,16.955
		L25.017,16.955z"/>
	<path d="M41.862,21.464c0,0,1.616-0.103,2.274-0.88c0,0,0.896,1.483,1.201,2.042l-3.228,0.241L41.862,21.464L41.862,21.464z"/>
	<path fill="#C1C3C5" d="M42.849,21.697c0.146-0.037,0.306-0.084,0.47-0.143l0.378,0.801l-1.262,0.095l-0.113-0.645
		C42.474,21.78,42.655,21.746,42.849,21.697L42.849,21.697z"/>
	<path fill="#C1C3C5" d="M43.542,21.464c0.171-0.075,0.342-0.165,0.5-0.274c0.182,0.303,0.434,0.727,0.646,1.09l-0.702,0.053
		L43.542,21.464L43.542,21.464z"/>
	<path fill="#965C0F" d="M41.938,21.49c-0.206-0.035-0.414-0.035-0.572,0.046c0,0-0.802-0.194-1.087,0.949l-0.924,2.348
		l-1.493,2.609c0,0-0.679-0.608-1.459-1.247c0.565-0.54,1.917-1.87,2.267-2.553c0.445-0.87,1.614-2.92,2.935-2.561
		c0.321,0.087,0.574,0.207,0.774,0.344C42.229,21.457,42.072,21.477,41.938,21.49L41.938,21.49z"/>
	<path fill="#936333" d="M41.365,21.537c0,0-0.802-0.194-1.087,0.949l-0.924,2.348l-1.493,2.609c0,0-0.281-0.252-0.689-0.602
		c0.463-0.599,1.5-1.968,1.935-2.779C39.674,23.001,40.468,21.166,41.365,21.537L41.365,21.537z"/>
	<path fill="#936333" d="M46.746,59.752l-0.717,0.714l-1.626-0.428c-1.316-2.769-3.607-2.883-3.607-2.883
		c-1.05-0.231-3.475-0.403-3.475-0.403c-1.873-0.616-1.401-1.135-1.401-1.135c0.417-2.139-1.066-3.236-1.066-3.236l-2.182-1.521
		l-0.074-0.334c-0.071-2.301-1.273-4.795-1.273-4.795l1.43-1.531c-0.15-0.708-0.11-1.34,0.021-1.88
		c0.229,0.632,0.909,2.161,2.492,3.493c2.053,1.727,3.298,3.547,3.306,5.683c0.01,2.436-1.039,3.234-0.354,3.655
		s4.433,1.681,6.018,3.625C44.933,59.63,45.994,59.658,46.746,59.752L46.746,59.752z"/>
	<path fill="#965C0F" d="M33.891,49.329c-1.213-0.791-2.021-2.547-2.542-3.624l1.251-1.341c0.375,0.608,0.955,1.43,1.615,1.954
		c1.152,0.912,2.872,4.26,2.743,6.208C36.862,53.963,35.583,50.431,33.891,49.329L33.891,49.329z"/>
	<path d="M78.273,61.133c-3.592,4.232-8.95,6.918-14.936,6.918c-6.064,0-11.484-2.757-15.076-7.085
		c-3.904,4.794-16.436,11.991-24.773,13.089l0.442,2.424c1.87-0.138,14.629-1.023,15.983-1.023c10.201,0,18.972,2.831,23.293,6.958
		c4.32-4.129,13.161-6.958,23.366-6.958c1.328,0,14.186,0.831,16.037,0.964l0.31-2.397C94.778,72.889,82.134,65.79,78.273,61.133
		L78.273,61.133z"/>
	<path fill="#008357" d="M78.273,60.538c-3.592,4.231-8.95,6.917-14.936,6.917c-6.064,0-11.484-2.756-15.076-7.085
		c-3.904,4.795-16.436,11.993-24.773,13.089l0.442,2.425c1.87-0.139,14.629-1.023,15.983-1.023c10.201,0,18.972,2.832,23.293,6.958
		c4.32-4.129,13.161-6.958,23.366-6.958c1.328,0,14.186,0.831,16.037,0.964l0.31-2.397C94.778,72.292,82.134,65.195,78.273,60.538
		L78.273,60.538z"/>
	<path d="M87.528,74.894c-0.462-0.021-0.794-0.034-0.956-0.034c-10.205,0-19.046,2.829-23.366,6.958
		c-4.322-4.126-13.093-6.958-23.293-6.958c-0.232,0-0.8,0.025-1.59,0.07c3.005-2.33,8.614-6.285,12.463-12.006
		c3.398,2.842,7.776,4.551,12.552,4.551c4.545,0,8.728-1.548,12.051-4.146C79.205,68.839,84.583,72.608,87.528,74.894L87.528,74.894
		z"/>
	<path fill-rule="evenodd" clip-rule="evenodd" fill="#FFD87D" d="M70.475,18.579l7.774-1.269l-8.043-1.162
		c0,0,0.983-0.804,2.502-0.894c1.519-0.089,4.021-1.251,4.915-3.307c-0.715,1.162-4.021,1.162-5.719,1.162
		c-1.698,0-2.86,1.162-2.86,1.162l4.111-5.362l-5.987,3.575c0,0,0.089-0.894,0.804-2.502s2.145-4.289,0.626-6.345
		c0,1.698-0.715,3.217-2.145,4.468s-1.966,3.396-1.966,3.396l-1.251-7.864l-1.251,7.864c0,0-0.536-2.145-1.966-3.396
		s-2.145-2.771-2.145-4.468c-1.519,2.056-0.089,4.736,0.625,6.345s0.804,2.502,0.804,2.502L53.317,8.91l4.11,5.362
		c0,0-1.162-1.162-2.859-1.162s-5.004,0-5.719-1.162c0.894,2.056,3.396,3.217,4.915,3.307s2.502,0.894,2.502,0.894l-8.042,1.162
		l7.774,1.269H70.475L70.475,18.579z"/>
	<g>
		<defs>
			<path id="SVGID_1_" d="M70.475,18.579l7.774-1.269l-8.043-1.162c0,0,0.983-0.804,2.502-0.894
				c1.519-0.089,4.021-1.251,4.915-3.307c-0.715,1.162-4.021,1.162-5.719,1.162c-1.698,0-2.86,1.162-2.86,1.162l4.111-5.362
				l-5.987,3.575c0,0,0.089-0.894,0.804-2.502s2.145-4.289,0.626-6.345c0,1.698-0.715,3.217-2.145,4.468s-1.966,3.396-1.966,3.396
				l-1.251-7.864l-1.251,7.864c0,0-0.536-2.145-1.966-3.396s-2.145-2.771-2.145-4.468c-1.519,2.056-0.089,4.736,0.625,6.345
				s0.804,2.502,0.804,2.502L53.317,8.91l4.11,5.362c0,0-1.162-1.162-2.859-1.162s-5.004,0-5.719-1.162
				c0.894,2.056,3.396,3.217,4.915,3.307s2.502,0.894,2.502,0.894l-8.042,1.162l7.774,1.269H70.475L70.475,18.579z"/>
		</defs>
		<clipPath id="SVGID_2_">
			<use xlink:href="#SVGID_1_"  overflow="visible"/>
		</clipPath>
		<path clip-path="url(#SVGID_2_)" fill-rule="evenodd" clip-rule="evenodd" fill="#E48D1A" d="M75.544,14.25
			c-0.966,0.614-2.037,0.958-2.835,1.005c-0.671,0.04-1.238,0.219-1.661,0.406c0.296-0.207,1.171-0.74,2.392-0.812
			C74.04,14.814,74.795,14.61,75.544,14.25L75.544,14.25z M77.392,12.216c0.094-0.082,0.171-0.17,0.231-0.268l-0.102,0.217
			L77.392,12.216L77.392,12.216z M69.962,13.621c0.099-0.053,0.205-0.105,0.317-0.155c-0.324,0.219-0.505,0.4-0.505,0.4
			L69.962,13.621L69.962,13.621z M64.376,11.409c0.314-0.641,1.443-2.749,2.077-3.303c1.43-1.251,2.145-2.771,2.145-4.468
			c0.255,0.346,0.428,0.71,0.534,1.083C68.83,5.824,68.181,6.828,67.183,7.7c-1.429,1.251-2.637,4.774-2.637,4.774L64.376,11.409
			L64.376,11.409z M61.9,11.825l1.336-8.188l0.333,2.092l-1.02,6.014C62.549,11.744,62.226,12.536,61.9,11.825L61.9,11.825z
			 M59.579,13.173c-0.12-0.396-0.805-2.574-1.079-3.19c-0.715-1.608-2.145-4.289-0.625-6.345c0,0.375,0.035,0.741,0.104,1.098
			C57.708,6.468,58.68,8.34,59.23,9.577c0.715,1.609,0.804,2.502,0.804,2.502L59.579,13.173L59.579,13.173z M57.551,14.309
			L53.317,8.91l1.92,1.146l2.921,3.81C58.158,13.866,58.666,14.62,57.551,14.309L57.551,14.309z M56.983,16.5
			c-0.418-0.245-2.253-1.188-3.219-1.245c-1.519-0.089-4.021-1.251-4.915-3.307c0.254,0.413,0.834,0.679,1.554,0.85
			c1.152,1.271,2.916,1.981,4.092,2.051c1.519,0.089,2.502,0.894,2.502,0.894L56.983,16.5L56.983,16.5z M70.475,18.579H55.998
			l-7.774-1.269l1.706-0.246l6.799,1.109h14.477l6.113-0.998l0.932,0.134L70.475,18.579L70.475,18.579z"/>
	</g>
	<path fill="none" stroke="#000000" stroke-width="0.2801" stroke-miterlimit="3.8637" d="M70.475,18.579l7.774-1.269l-8.043-1.162
		c0,0,0.983-0.804,2.502-0.894c1.519-0.089,4.021-1.251,4.915-3.307c-0.715,1.162-4.021,1.162-5.719,1.162
		c-1.698,0-2.86,1.162-2.86,1.162l4.111-5.362l-5.987,3.575c0,0,0.089-0.894,0.804-2.502s2.145-4.289,0.626-6.345
		c0,1.698-0.715,3.217-2.145,4.468s-1.966,3.396-1.966,3.396l-1.251-7.864l-1.251,7.864c0,0-0.536-2.145-1.966-3.396
		s-2.145-2.771-2.145-4.468c-1.519,2.056-0.089,4.736,0.625,6.345s0.804,2.502,0.804,2.502L53.317,8.91l4.11,5.362
		c0,0-1.162-1.162-2.859-1.162s-5.004,0-5.719-1.162c0.894,2.056,3.396,3.217,4.915,3.307s2.502,0.894,2.502,0.894l-8.042,1.162
		l7.774,1.269H70.475L70.475,18.579z"/>
	<path fill="#FFD87D" stroke="#000000" stroke-width="0.2801" stroke-miterlimit="3.8637" d="M56,18.74l-0.002-0.161
		c0-3.998,3.241-7.239,7.239-7.239c3.998,0,7.238,3.241,7.238,7.239c0,0.054-0.001,0.107,0.009,0.161H56L56,18.74z"/>
	<path fill="#E48D1A" d="M58.2,18.415c0-2.806,2.274-5.08,5.08-5.08c2.805,0,5.08,2.274,5.08,5.08c0,0.109-0.003,0.217-0.01,0.324
		H58.21C58.203,18.632,58.2,18.524,58.2,18.415L58.2,18.415z"/>
	
		<path fill-rule="evenodd" clip-rule="evenodd" fill="#FFD87D" stroke="#000000" stroke-width="0.2801" stroke-miterlimit="3.8637" d="
		M51.578,18.451h23.353c0.979,0,1.773,0.794,1.773,1.773l0,0c0,0.979-0.794,1.773-1.773,1.773H51.578
		c-0.979,0-1.773-0.794-1.773-1.773l0,0C49.805,19.245,50.599,18.451,51.578,18.451L51.578,18.451z"/>
	<path fill-rule="evenodd" clip-rule="evenodd" d="M74.11,18.508c0.017,0.547,0.73,0.388,1.199,0.638
		c0.22,0.117,0.447-0.07,0.564-0.29c0.148-0.28,0.054-0.212-0.226-0.36C75.178,18.246,74.38,18.224,74.11,18.508L74.11,18.508z
		 M75.039,20.26c-0.09,0.17-0.311,0.115-0.401,0.285c-0.103,0.194-0.077,0.458,0.117,0.561c0.486,0.258,1.083-0.006,1.341-0.492
		c0.241-0.453,0.272-1.059-0.181-1.3c-0.251-0.133-0.576-0.088-0.709,0.163C75.06,19.752,75.185,19.985,75.039,20.26L75.039,20.26z
		 M73.247,18.637c0.196,0,0.348-0.046,0.527,0.049c0.414,0.22-0.224,0.942,0.006,1.203c0.332,0.223,0.844,0.495,0.617,1.009
		c-0.124,0.279-0.517,0.105-0.787-0.038c-0.747-0.397-0.971-1.45-0.457-2.135L73.247,18.637L73.247,18.637z M68.357,18.731
		c-0.438,0.26-0.603,0.644-0.603,1.15c0,0.301,0.356,0.438,0.657,0.438c0.507,0,0.822-0.534,0.822-1.041
		C69.234,18.896,68.741,18.759,68.357,18.731L68.357,18.731z M64.907,18.402c0.096,1.205,0.986,2.191,2.191,2.191
		c0.206,0,0.383-0.178,0.383-0.383c0-0.479-0.931-0.342-0.931-0.822c0-0.287,0.137-0.684,0.273-0.931
		c-0.575-0.232-0.903-0.055-1.534-0.055c-0.137,0-0.205,0.11-0.329,0.165L64.907,18.402L64.907,18.402z M68.423,22.394
		c-0.041-0.219-0.11-0.37-0.11-0.603c0-0.466,0.192-0.986,0.657-0.986c0.603,0,0.822,0.712,0.822,1.314
		c0,0.109-0.082,0.178-0.109,0.274C69.189,22.435,68.916,22.435,68.423,22.394L68.423,22.394z M70.449,20.257
		c0-0.233-0.164-0.438-0.397-0.438c-0.288,0-0.808,0.37-0.808,0.603C69.244,20.887,70.449,20.723,70.449,20.257L70.449,20.257z
		 M73.024,21.626c0-1.027-0.794-1.917-1.821-1.917c-0.206,0-0.534,0.315-0.534,0.479c0,0.726,1.369,0.548,1.369,1.274
		c0,0.26-0.164,0.397-0.164,0.657c0,0.096,1.041,0,1.041,0S73.024,21.928,73.024,21.626L73.024,21.626z M63.155,20.138
		c0.017,0.547,0.729,0.388,1.199,0.637c0.22,0.117,0.447-0.069,0.564-0.289c0.149-0.28-0.168-0.551-0.448-0.7
		C64,19.537,63.346,19.394,63.155,20.138L63.155,20.138z M64.084,21.89c-0.091,0.17-0.311,0.116-0.401,0.286
		c-0.103,0.194,1.295,0.247,1.553-0.239c0.241-0.453,0.178-0.751-0.276-0.992c-0.25-0.134-0.576-0.088-0.709,0.162
		C64.105,21.382,64.23,21.615,64.084,21.89L64.084,21.89z M62.292,20.266c0.196,0,0.347-0.046,0.527,0.05
		c0.414,0.22-0.224,0.942,0.006,1.203c0.332,0.223,0.827,0.176,0.6,0.689c-0.124,0.279-0.816,0.053-1.086-0.091
		c-0.747-0.396-0.654-1.078-0.141-1.762L62.292,20.266L62.292,20.266z M62.203,18.315c0.034,0.181,0.091,0.306,0.091,0.498
		c0,0.385-0.159,0.815-0.543,0.815c-0.498,0-0.679-0.589-0.679-1.086c0-0.091,0.068-0.147,0.09-0.227
		C61.569,18.281,61.796,18.281,62.203,18.315L62.203,18.315z M60.528,20.081c0,0.192,0.136,0.362,0.329,0.362
		c0.237,0,0.667-0.305,0.667-0.498C61.524,19.56,60.528,19.695,60.528,20.081L60.528,20.081z M58.537,18.315
		c-0.09,0.227-0.136,0.385-0.136,0.634c0,0.849,0.657,1.584,1.505,1.584c0.17,0,0.272-0.034,0.442-0.045v-0.351
		c0-0.6-1.132-0.453-1.132-1.053c0-0.215,0.136-0.328,0.136-0.543c0-0.08-0.079-0.113-0.091-0.181h-0.633l-0.136,0.181
		L58.537,18.315L58.537,18.315z M57.709,21.849c0.142-0.443,0.383-0.847,0.847-0.847c0.524,0,1.169,0.162,1.169,0.686
		c0,0.212-0.242,0.323-0.454,0.323H57.75L57.709,21.849L57.709,21.849z M55.536,19.01c0.109-0.357,0.602-0.181,0.959-0.071
		c0.881,0.269,1.532,1.119,1.263,2c-0.127,0.417-0.644,0.532-1.061,0.404c-0.107-0.033-0.165-0.142-0.132-0.249
		c0.073-0.238,0.34-0.26,0.413-0.499C57.222,19.799,55.292,19.808,55.536,19.01L55.536,19.01z M55.282,19.161
		c-0.158,0.043-0.257,0.005-0.405,0.071c-0.375,0.167-0.28,0.657-0.136,1.042c0.118-0.011,0.2,0.02,0.313-0.031
		C55.441,20.071,55.676,19.313,55.282,19.161L55.282,19.161z M56.129,20.952c-0.411,0-0.535-0.448-0.946-0.448
		c-0.249,0-0.398,0.249-0.398,0.498c0,0.535,0.56,0.847,1.096,0.847c0.236,0,0.349-0.261,0.349-0.498
		C56.229,21.189,56.292,20.952,56.129,20.952L56.129,20.952z M52.855,19.084c-0.475,0.272,0,0.826,0,1.358
		c0,0.25,0.272,0.362,0.521,0.362c0.317,0,0.408-0.408,0.408-0.724C53.784,19.549,53.603,18.903,52.855,19.084L52.855,19.084z
		 M51.745,20.727c-0.192,0-0.248-0.22-0.44-0.22c-0.22,0-0.44,0.146-0.44,0.367c0,0.55,0.513,0.953,1.063,0.953
		c0.513,0,1.063-0.257,1.063-0.77c0-0.284-0.193-0.55-0.477-0.55C52.203,20.507,52.056,20.727,51.745,20.727L51.745,20.727z
		 M52.337,18.382c0.091,0.173,0.204,0.285,0.204,0.489c0,0.469-0.937,0.245-1.059,0.57c-0.041,0.397-0.041,0.978-0.601,1.019
		c-0.305,0.022-0.336-0.407-0.336-0.713c0-0.845,0.825-1.538,1.67-1.406L52.337,18.382L52.337,18.382z"/>
	<path fill="#FFFFFF" d="M44.502,21.791h37.555v27.396c0,0-3.051,16.91-18.291,16.91c-18.534,0-19.265-19.313-19.265-19.313V21.791
		L44.502,21.791z"/>
	<path d="M63.48,37.328c0.983-0.357,1.608-1.341,2.055-3.307c0.536,1.162,0.626,2.234,0.447,3.485
		c1.877-0.715,2.86-1.43,4.379-4.468c0,2.323-0.894,4.557-1.876,5.004c0.804,0.536,0.894,0.894,1.608,2.859
		c-0.804-0.894-1.698-0.894-2.681-0.715c0.894,1.162,1.34,2.592,0.894,4.736c-0.089-1.252-0.894-2.145-1.43-2.681
		c-0.536-0.536-0.155,0.537-0.423,1.698c-0.536-0.893-1.186-1.698-1.99-1.876c0.357,0.804,0.852,1.608,0.828,2.949
		c-0.625-0.894-1.275-1.072-1.275-0.625s0,0.893,0,2.323s1.9,3.396,2.079,4.647c-0.983-0.716-1.519-1.788-2.859-1.699
		c-1.341-0.089-1.877,0.983-2.86,1.699c0.179-1.252,2.079-3.217,2.079-4.647s0-1.876,0-2.323s-0.649-0.269-1.275,0.625
		c-0.024-1.341,0.471-2.145,0.828-2.949c-0.804,0.179-1.454,0.983-1.99,1.876c-0.268-1.161,0.113-2.234-0.423-1.698
		c-0.537,0.537-1.34,1.429-1.43,2.681c-0.447-2.145,0-3.575,0.893-4.736c-0.983-0.179-1.876-0.179-2.681,0.715
		c0.715-1.966,0.805-2.323,1.609-2.859c-0.983-0.447-1.877-2.681-1.877-5.004c1.52,3.039,2.502,3.753,4.379,4.468
		c-0.179-1.251-0.089-2.324,0.447-3.485c0.447,1.966,1.072,2.949,2.055,3.307C63.082,37.417,63.391,37.417,63.48,37.328
		L63.48,37.328z"/>
	<path fill="none" stroke="#000000" stroke-width="0.0159" stroke-miterlimit="3.8637" d="M81.542,46.799l0.025,0.191
		c0,10.069-8.162,18.23-18.23,18.23s-18.23-8.161-18.23-18.23c0-0.063,0-24.873,0-24.873h36.436L81.542,46.799L81.542,46.799z"/>
	<polygon points="58.411,34.7 62.968,35.836 62.968,33.44 63.549,33.44 63.549,35.825 68.096,34.691 68.096,33.485 68.543,33.485 
		68.543,35.228 68.345,35.228 63.549,36.423 63.549,37.238 62.968,37.238 62.968,36.435 58.127,35.228 57.963,35.228 57.963,33.485 
		58.411,33.485 58.411,34.7 	"/>
	<path fill="#004B85" d="M49.092,51.359c2.006,0,2.009-2.325,4.315-2.325c2.307,0,2.106,2.324,4.915,2.324s2.607-2.324,4.915-2.324
		c2.307,0,2.104,2.324,4.913,2.324c2.808,0,2.607-2.324,4.914-2.324s2.309,2.324,4.315,2.324v3.574
		c-2.006,0-2.008-2.323-4.315-2.323s-2.106,2.323-4.914,2.323c-2.809,0-2.606-2.323-4.913-2.323c-2.307,0-2.106,2.323-4.915,2.323
		s-2.607-2.323-4.915-2.323c-2.307,0-2.31,2.323-4.315,2.323C49.093,54.932,49.093,51.358,49.092,51.359L49.092,51.359z"/>
	<path fill="#004B85" d="M51.287,60.67c-0.78-0.688-1.501-1.442-2.155-2.252c1.966-0.031,1.984-2.325,4.275-2.325
		c2.307,0,2.106,2.323,4.915,2.323s2.607-2.323,4.915-2.323c2.307,0,2.104,2.323,4.913,2.323c2.808,0,2.607-2.323,4.914-2.323
		s2.309,2.323,4.315,2.323v0.203c-0.641,0.773-1.344,1.492-2.102,2.148c-0.523-0.559-1.1-1.1-2.213-1.1
		c-2.307,0-2.106,2.323-4.914,2.323c-2.809,0-2.606-2.323-4.913-2.323c-2.307,0-2.106,2.323-4.915,2.323s-2.607-2.323-4.915-2.323
		C52.36,59.668,51.788,60.148,51.287,60.67L51.287,60.67z"/>
	<path fill="#B12C1B" d="M77.543,58.417h-0.128c-2.982-4.098-4.944-9.143-4.944-14.598c0-7.625,3.436-14.447,8.854-19.002
		l0.218-0.145l-0.001,22.127l0.025,0.191C81.567,51.317,80.061,55.292,77.543,58.417L77.543,58.417z"/>
	<path fill="#B12C1B" d="M45.107,24.655l0.204,0.162c5.418,4.555,8.854,11.377,8.854,19.002c0,5.455-1.962,10.5-4.945,14.598h-0.09
		c-2.517-3.125-4.024-7.1-4.024-11.426V24.655L45.107,24.655z"/>
	<path fill="#E48D1A" d="M85.724,67.762c-3.191,3.27-7.48,5.593-12.239,7.136c4.416-1.662,8.176-4.231,11.278-7.667L85.724,67.762
		L85.724,67.762z"/>
	<path fill="#E48D1A" d="M40.884,67.762c3.192,3.27,7.481,5.593,12.239,7.136c-4.416-1.662-8.176-4.231-11.278-7.667L40.884,67.762
		L40.884,67.762z"/>
	<path fill="#FFD87D" d="M79.739,62.808c1.231,1.263,2.559,2.433,4,3.457c-5.226,5.213-12.437,8.437-20.402,8.437
		c-7.977,0-15.197-3.233-20.413-8.46c1.41-1.01,2.752-2.161,3.961-3.399c4.26,4.117,10.06,6.649,16.452,6.649
		C69.748,69.492,75.476,66.945,79.739,62.808L79.739,62.808z"/>
	<path fill-rule="evenodd" clip-rule="evenodd" d="M45.799,66.34l1.042-1.116l0.194,0.18c0.177,0.165,0.078,0.349-0.271,0.722
		c-0.426,0.456-0.573,0.58-0.836,0.334L45.799,66.34L45.799,66.34z M45.833,66.805c0.074,0.069,0.158,0.14,0.258,0.163
		c0.375,0.085,0.71-0.275,1.001-0.588c0.244-0.261,0.388-0.453,0.422-0.627c0.047-0.231-0.067-0.396-0.139-0.464l-0.615-0.573
		l-1.474,1.581L45.833,66.805L45.833,66.805z"/>
	<polygon points="47.511,68.205 47.706,67.955 47.129,67.504 47.539,66.98 48.07,67.395 48.265,67.145 47.734,66.73 48.069,66.3 
		48.646,66.751 48.841,66.501 47.946,65.803 46.616,67.505 47.511,68.205 	"/>
	<path d="M48.822,68.164c-0.087,0.087-0.168,0.182-0.247,0.278c-0.037,0.044-0.081,0.089-0.114,0.138l-0.005-0.002
		c0.034-0.051,0.058-0.107,0.086-0.158c0.059-0.109,0.117-0.22,0.166-0.334l0.564-1.289l-0.358-0.242l-0.812,2.058l0.446,0.302
		l1.595-1.53l-0.358-0.241L48.822,68.164L48.822,68.164z"/>
	<polygon points="50.174,69.901 50.332,69.626 49.698,69.261 50.031,68.684 50.615,69.022 50.773,68.747 50.189,68.411 
		50.462,67.938 51.096,68.304 51.254,68.031 50.271,67.461 49.191,69.333 50.174,69.901 	"/>
	<polygon points="51.527,70.61 51.671,70.328 51.004,69.987 51.841,68.344 51.481,68.162 50.5,70.087 51.527,70.61 	"/>
	<path fill-rule="evenodd" clip-rule="evenodd" d="M52.193,69.876c-0.225,0.531-0.35,0.936,0.26,1.193
		c0.61,0.26,0.814-0.11,1.039-0.642l0.121-0.283c0.199-0.514,0.319-0.906-0.275-1.159c-0.594-0.252-0.794,0.108-1.025,0.607
		L52.193,69.876L52.193,69.876z M52.73,69.673c0.065-0.153,0.189-0.511,0.48-0.388c0.276,0.117,0.118,0.467,0.051,0.626l-0.216,0.51
		c-0.081,0.189-0.2,0.463-0.465,0.35c-0.254-0.108-0.154-0.381-0.084-0.546L52.73,69.673L52.73,69.673z"/>
	<path fill-rule="evenodd" clip-rule="evenodd" d="M54.528,69.865l0.173,0.063c0.214,0.077,0.293,0.146,0.208,0.379
		c-0.09,0.246-0.226,0.276-0.392,0.216l-0.203-0.073L54.528,69.865L54.528,69.865z M53.898,71.598l0.31-0.852l0.254,0.093
		c0.145,0.057,0.316,0.086,0.469,0.034c0.185-0.062,0.302-0.241,0.365-0.414c0.104-0.283,0.099-0.616-0.264-0.749l-0.774-0.281
		l-0.739,2.03L53.898,71.598L53.898,71.598z"/>
	<path d="M55.659,71.46c0.118-0.412,0.228-0.826,0.322-1.246l0.014,0.004l-0.135,2.009l0.235,0.066l0.958-1.772l0.005,0.002
		c-0.143,0.405-0.27,0.815-0.388,1.229l-0.187,0.653l0.387,0.111l0.596-2.077l-0.615-0.177l-0.484,0.904
		c-0.067,0.129-0.121,0.263-0.199,0.462l-0.005-0.002c0.03-0.166,0.053-0.331,0.065-0.5l0.069-1.022l-0.618-0.177l-0.596,2.077
		l0.388,0.11L55.659,71.46L55.659,71.46z"/>
	<polygon points="58.41,72.824 58.475,72.514 57.76,72.363 57.898,71.711 58.557,71.852 58.623,71.542 57.964,71.401 58.077,70.869 
		58.793,71.021 58.859,70.71 57.749,70.475 57.299,72.588 58.41,72.824 	"/>
	<path d="M60.006,71.316c-0.03,0.19-0.054,0.397-0.075,0.603c-0.021,0.207-0.04,0.418-0.056,0.613l-0.006-0.001
		c-0.042-0.362-0.087-0.629-0.15-0.894l-0.188-0.825l-0.413-0.065l-0.337,2.134l0.398,0.063l0.063-0.401
		c0.027-0.171,0.053-0.386,0.075-0.601c0.023-0.218,0.041-0.437,0.054-0.615l0.006,0.001c0.041,0.35,0.085,0.622,0.15,0.893
		l0.19,0.81l0.415,0.064l0.338-2.134l-0.398-0.063L60.006,71.316L60.006,71.316z"/>
	<polygon points="60.629,71.281 61.099,71.33 60.906,73.163 61.307,73.205 61.5,71.372 61.967,71.421 62,71.106 60.662,70.965 
		60.629,71.281 	"/>
	<polygon points="62.771,71.447 63.243,71.463 63.179,73.306 63.583,73.321 63.646,71.478 64.116,71.494 64.127,71.177 
		62.782,71.13 62.771,71.447 	"/>
	<polygon points="64.756,73.305 64.722,72.317 65.286,72.297 65.32,73.285 65.724,73.271 65.648,71.111 65.245,71.125 65.275,71.98 
		64.71,72 64.681,71.145 64.278,71.16 64.353,73.318 64.756,73.305 	"/>
	<path fill-rule="evenodd" clip-rule="evenodd" d="M66.523,72.258c0.114-0.015,0.231-0.031,0.344-0.014
		c0.142,0.022,0.161,0.203,0.18,0.334c0.021,0.144,0.044,0.407,0.109,0.539l0.44-0.055l-0.005-0.039
		c-0.105-0.052-0.158-0.58-0.169-0.668c-0.025-0.206-0.115-0.348-0.356-0.351L67.065,72c0.265-0.069,0.294-0.323,0.265-0.558
		c-0.048-0.395-0.326-0.483-0.672-0.44l-0.758,0.093l0.263,2.145l0.4-0.048l-0.113-0.925L66.523,72.258L66.523,72.258z M66.34,71.36
		l0.297-0.036c0.152-0.016,0.257,0.012,0.287,0.251c0.026,0.216-0.066,0.314-0.197,0.338l-0.314,0.039L66.34,71.36L66.34,71.36z"/>
	<path fill-rule="evenodd" clip-rule="evenodd" d="M67.79,72.083c0.1,0.567,0.216,0.975,0.868,0.859s0.622-0.537,0.522-1.104
		l-0.054-0.303c-0.112-0.539-0.226-0.935-0.861-0.822c-0.636,0.111-0.607,0.521-0.529,1.067L67.79,72.083L67.79,72.083z
		 M68.129,71.621c-0.029-0.164-0.12-0.532,0.192-0.586c0.295-0.054,0.354,0.325,0.383,0.496l0.096,0.544
		c0.036,0.205,0.085,0.498-0.199,0.548c-0.272,0.048-0.337-0.236-0.368-0.411L68.129,71.621L68.129,71.621z"/>
	<path d="M70.515,71.745c0.054,0.201,0.094,0.405-0.16,0.473c-0.264,0.07-0.332-0.125-0.386-0.326l-0.381-1.422l-0.389,0.104
		l0.39,1.456c0.124,0.461,0.333,0.641,0.848,0.502c0.509-0.136,0.601-0.396,0.477-0.858l-0.39-1.455l-0.39,0.104L70.515,71.745
		L70.515,71.745z"/>
	<path d="M71.17,71.304c0.188,0.545,0.366,0.929,0.992,0.713c0.135-0.059,0.259-0.168,0.262-0.407l0.005-0.001l0.081,0.234
		l0.286-0.099l-0.378-1.099l-0.635,0.219l0.103,0.299l0.264-0.09c0.114,0.306,0.124,0.561-0.094,0.636
		c-0.262,0.091-0.37-0.18-0.428-0.35l-0.195-0.566c-0.054-0.158-0.202-0.506,0.098-0.609c0.262-0.078,0.332,0.081,0.409,0.285
		l0.381-0.131c-0.03-0.081-0.057-0.166-0.104-0.242c-0.209-0.323-0.464-0.33-0.792-0.22c-0.61,0.209-0.518,0.611-0.355,1.136
		L71.17,71.304L71.17,71.304z"/>
	<polygon points="73.607,71.443 73.237,70.527 73.76,70.316 74.13,71.231 74.504,71.08 73.695,69.076 73.321,69.228 73.642,70.021 
		73.118,70.233 72.797,69.439 72.424,69.59 73.233,71.593 73.607,71.443 	"/>
	<path d="M76.162,69.501c0.094,0.185,0.176,0.375-0.058,0.495c-0.244,0.124-0.351-0.054-0.445-0.239l-0.668-1.311l-0.359,0.183
		l0.684,1.342c0.217,0.426,0.459,0.559,0.934,0.316c0.469-0.239,0.505-0.513,0.288-0.938l-0.684-1.343l-0.359,0.183L76.162,69.501
		L76.162,69.501z"/>
	<path fill-rule="evenodd" clip-rule="evenodd" d="M77.153,67.719c0.1,0.166,0.213,0.339,0.33,0.511
		c0.117,0.172,0.237,0.345,0.351,0.505l-0.005,0.004c-0.265-0.252-0.471-0.427-0.689-0.588l-0.674-0.513l-0.358,0.216l1.113,1.851
		l0.346-0.206l-0.209-0.349c-0.089-0.148-0.208-0.33-0.329-0.509c-0.123-0.182-0.25-0.36-0.354-0.506l0.005-0.003
		c0.257,0.242,0.466,0.422,0.689,0.587l0.666,0.497L78.394,69l-1.113-1.853l-0.346,0.208L77.153,67.719L77.153,67.719z"/>
	<polygon points="79.107,68.528 77.899,66.736 77.564,66.961 78.773,68.752 79.107,68.528 	"/>
	<polygon points="78.284,66.876 78.666,66.597 79.75,68.089 80.076,67.852 78.992,66.361 79.372,66.085 79.186,65.829 78.097,66.62 
		78.284,66.876 	"/>
	<path d="M79.562,65.552l-0.343,0.277l1.218,0.61l0.578,0.716l0.313-0.255l-0.578-0.714l-0.338-1.324l-0.342,0.278l0.158,0.501
		c0.038,0.125,0.072,0.254,0.154,0.401l-0.004,0.004c-0.086-0.078-0.182-0.142-0.282-0.197L79.562,65.552L79.562,65.552z"/>
	<path fill-rule="evenodd" clip-rule="evenodd" fill="#B12C1B" d="M68.266,25.747c-0.375,2.1-0.582,2.905-1.019,3.706
		c0.291,0.801,1.019,0.582,1.019,0.582s0.73,0.219,1.021-0.582C68.85,28.652,68.65,27.802,68.266,25.747L68.266,25.747z
		 M68.574,32.636c0,0,0.842-0.084,1.095-0.674c0,0.084,0.084,0.168,0.253,0.421c-0.271,0.526-0.843,0.758-1.264,0.842L68.574,32.636
		L68.574,32.636z M68.5,31.667c0,0,0.764-0.077,0.993-0.611c0,0.076,0.077,0.153,0.229,0.382c-0.254,0.489-0.764,0.688-1.146,0.764
		L68.5,31.667L68.5,31.667z M68.394,30.689c0,0,0.728-0.073,0.946-0.583c0,0.073,0.073,0.146,0.218,0.364
		c-0.235,0.509-0.728,0.655-1.091,0.728L68.394,30.689L68.394,30.689z M67.959,32.636c0,0-0.842-0.084-1.095-0.674
		c0,0.084-0.084,0.168-0.252,0.421c0.271,0.526,0.842,0.758,1.264,0.842L67.959,32.636L67.959,32.636z M68.033,31.667
		c0,0-0.764-0.077-0.994-0.611c0,0.076-0.076,0.153-0.229,0.382c0.255,0.489,0.765,0.688,1.146,0.764L68.033,31.667L68.033,31.667z
		 M68.14,30.689c0,0-0.728-0.073-0.946-0.583c0,0.073-0.073,0.146-0.218,0.364c0.235,0.509,0.728,0.655,1.092,0.728L68.14,30.689
		L68.14,30.689z M58.133,25.747c-0.295,2.1-0.583,2.905-1.019,3.706c0.292,0.801,1.019,0.582,1.019,0.582s0.729,0.219,1.021-0.582
		C58.717,28.652,58.418,27.891,58.133,25.747L58.133,25.747z M58.441,32.636c0,0,0.842-0.084,1.095-0.674
		c0,0.084,0.084,0.168,0.253,0.421c-0.271,0.526-0.843,0.758-1.264,0.842L58.441,32.636L58.441,32.636z M58.368,31.667
		c0,0,0.764-0.077,0.993-0.611c0,0.076,0.077,0.153,0.229,0.382c-0.255,0.489-0.764,0.688-1.146,0.764L58.368,31.667L58.368,31.667z
		 M58.261,30.689c0,0,0.728-0.073,0.946-0.583c0,0.073,0.073,0.146,0.218,0.364c-0.235,0.509-0.728,0.655-1.092,0.728L58.261,30.689
		L58.261,30.689z M57.828,32.636c0,0-0.843-0.084-1.096-0.674c0,0.084-0.084,0.168-0.252,0.421c0.271,0.526,0.842,0.758,1.264,0.842
		L57.828,32.636L57.828,32.636z M57.9,31.667c0,0-0.764-0.077-0.993-0.611c0,0.076-0.077,0.153-0.229,0.382
		c0.255,0.489,0.764,0.688,1.146,0.764L57.9,31.667L57.9,31.667z M58.007,30.689c0,0-0.728-0.073-0.946-0.583
		c0,0.073-0.073,0.146-0.218,0.364c0.235,0.509,0.728,0.655,1.092,0.728L58.007,30.689L58.007,30.689z M63.2,26.832
		c-0.728,1.965-0.583,1.82-1.019,2.62c0.291,0.801,1.019,0.582,1.019,0.582s0.729,0.219,1.021-0.582
		C63.784,28.652,63.927,28.797,63.2,26.832L63.2,26.832z M63.507,32.636c0,0,0.842-0.084,1.096-0.674
		c0,0.084,0.084,0.168,0.252,0.421c-0.271,0.526-0.843,0.758-1.264,0.842L63.507,32.636L63.507,32.636z M63.434,31.667
		c0,0,0.764-0.077,0.994-0.611c0,0.076,0.076,0.153,0.229,0.382c-0.254,0.489-0.764,0.688-1.146,0.764L63.434,31.667L63.434,31.667z
		 M63.328,30.689c0,0,0.728-0.073,0.946-0.583c0,0.073,0.073,0.146,0.218,0.364c-0.235,0.509-0.728,0.655-1.091,0.728L63.328,30.689
		L63.328,30.689z M62.894,32.636c0,0-0.843-0.084-1.095-0.674c0,0.084-0.084,0.168-0.253,0.421c0.271,0.526,0.843,0.758,1.264,0.842
		L62.894,32.636L62.894,32.636z M62.967,31.667c0,0-0.764-0.077-0.994-0.611c0,0.076-0.076,0.153-0.229,0.382
		c0.254,0.489,0.764,0.688,1.146,0.764L62.967,31.667L62.967,31.667z M63.074,30.689c0,0-0.728-0.073-0.946-0.583
		c0,0.073-0.073,0.146-0.218,0.364c0.235,0.509,0.728,0.655,1.092,0.728L63.074,30.689L63.074,30.689z"/>
	<path fill-rule="evenodd" clip-rule="evenodd" d="M81.542,46.799l0.025,0.191c0,10.069-8.162,18.23-18.23,18.23
		s-18.23-8.161-18.23-18.23V22.118h36.436L81.542,46.799L81.542,46.799z M82.453,47.26l0.026,0.201
		c0,10.572-8.57,19.141-19.142,19.141s-19.142-8.568-19.142-19.141V21.344h38.258L82.453,47.26L82.453,47.26z"/>
	<path fill="#B12C1B" d="M71.255,75.252c4.408-1.207,8.519-3.832,12.174-7.246c-3.594,3.057-7.665,5.101-12.172,6.147L71.255,75.252
		L71.255,75.252z"/>
	<path fill="#B12C1B" d="M55.661,75.252c-4.408-1.207-8.519-3.832-12.174-7.246c3.594,3.057,7.665,5.101,12.173,6.147L55.661,75.252
		L55.661,75.252z"/>
	<path fill="#FFD87D" d="M78.965,75.404c-6.878,1.011-12.559,3.355-15.759,6.414c-2.956-2.823-7.994-5.039-14.147-6.158
		c6.153,0.593,11.191,1.975,14.147,4.797C66.406,77.399,72.087,75.949,78.965,75.404L78.965,75.404z"/>
	<path fill="#008357" d="M63.236,36.88c-0.76,2.189-4.692,0.268-5.451-0.67c0.044,1.162,2.726,2.591,3.932,3.083
		c-1.385,0-1.385,1.608-1.162,2.323c0.402-0.715,2.726-2.368,2.681,1.43c-0.045-3.798,2.28-2.145,2.683-1.43
		c0.223-0.715,0.223-2.323-1.162-2.323c1.207-0.492,3.887-1.921,3.932-3.083C67.929,37.148,63.996,39.07,63.236,36.88L63.236,36.88z
		"/>
	<polygon points="119.759,29.95 131.834,29.95 131.834,32.664 122.809,32.664 122.809,39.159 131.529,39.159 131.529,41.888 
		122.809,41.888 122.809,48.505 132.124,48.505 132.124,51.218 119.759,51.218 119.759,29.95 	"/>
	<path fill-rule="evenodd" clip-rule="evenodd" d="M142.07,29.828h2.15l9.529,21.422h-3.125l-2.836-6.312h-9.057l-2.683,6.312
		h-3.125L142.07,29.828L142.07,29.828z M146.537,42.223l-3.43-7.715l-3.187,7.715H146.537L146.537,42.223z"/>
	<path d="M161.271,42.314l-2.318-1.403c-1.454-0.884-2.49-1.753-3.11-2.607c-0.61-0.864-0.915-1.855-0.915-2.973
		c0-1.677,0.579-3.039,1.738-4.086c1.169-1.047,2.683-1.57,4.544-1.57c1.778,0,3.41,0.499,4.894,1.494v3.461
		c-1.535-1.474-3.187-2.21-4.955-2.211c-0.997,0-1.814,0.234-2.455,0.702c-0.64,0.457-0.96,1.047-0.96,1.769
		c0,0.64,0.233,1.24,0.701,1.799c0.468,0.56,1.225,1.144,2.272,1.753l2.333,1.373c2.602,1.545,3.903,3.517,3.903,5.916
		c0,1.708-0.575,3.095-1.723,4.162c-1.139,1.067-2.623,1.602-4.452,1.602c-2.104,0-4.021-0.646-5.748-1.937v-3.873
		c1.646,2.084,3.552,3.125,5.718,3.125c0.955,0,1.748-0.263,2.378-0.792c0.641-0.538,0.961-1.209,0.961-2.014
		C164.076,44.704,163.141,43.473,161.271,42.314L161.271,42.314z"/>
	<polygon points="168.381,29.919 186.174,29.919 186.174,32.633 178.749,32.633 178.749,51.25 175.684,51.25 175.684,32.633 
		168.381,32.633 168.381,29.919 	"/>
	<polygon points="188.954,29.95 201.029,29.95 201.029,32.664 192.003,32.664 192.003,39.159 200.724,39.159 200.724,41.888 
		192.003,41.888 192.003,48.505 201.318,48.505 201.318,51.218 188.954,51.218 188.954,29.95 	"/>
	<path fill-rule="evenodd" clip-rule="evenodd" d="M204.556,51.25v-21.3h5.337c2.154,0,3.862,0.534,5.123,1.601
		c1.27,1.067,1.905,2.511,1.905,4.33c0,1.24-0.311,2.313-0.931,3.217c-0.62,0.905-1.509,1.581-2.667,2.028
		c0.681,0.447,1.346,1.057,1.996,1.83c0.65,0.771,1.565,2.119,2.744,4.04c0.743,1.209,1.337,2.119,1.785,2.729l1.128,1.525h-3.629
		l-0.93-1.403c-0.031-0.05-0.092-0.137-0.184-0.259l-0.594-0.838l-0.946-1.556l-1.021-1.662c-0.63-0.874-1.209-1.57-1.738-2.09
		c-0.518-0.518-0.99-0.888-1.417-1.112c-0.417-0.233-1.124-0.35-2.119-0.351h-0.793v9.271H204.556L204.556,51.25z M208.52,32.542
		h-0.914v6.724h1.158c1.545,0,2.603-0.132,3.171-0.396c0.58-0.264,1.026-0.661,1.343-1.189c0.324-0.539,0.487-1.148,0.488-1.83
		c0-0.671-0.18-1.275-0.534-1.814c-0.356-0.549-0.859-0.935-1.51-1.159C211.081,32.653,210.014,32.542,208.52,32.542L208.52,32.542z
		"/>
	<polygon points="240.147,29.95 243.044,29.95 243.044,51.25 240.421,51.25 226.181,34.859 226.181,51.25 223.314,51.25 
		223.314,29.95 225.784,29.95 240.147,46.477 240.147,29.95 	"/>
	<path d="M274.432,46.309v3.354c-2.236,1.219-4.818,1.83-7.746,1.83c-2.378,0-4.396-0.478-6.053-1.435
		c-1.656-0.954-2.968-2.271-3.933-3.948c-0.967-1.677-1.449-3.491-1.449-5.443c0-3.1,1.103-5.707,3.309-7.821
		c2.215-2.114,4.944-3.171,8.188-3.171c2.236,0,4.722,0.584,7.455,1.753v3.278c-2.49-1.423-4.925-2.134-7.302-2.135
		c-2.44,0-4.469,0.773-6.084,2.318c-1.606,1.535-2.41,3.461-2.41,5.778c0,2.338,0.794,4.258,2.379,5.764
		c1.586,1.503,3.613,2.256,6.084,2.256C269.45,48.688,271.972,47.894,274.432,46.309L274.432,46.309z"/>
	<path fill-rule="evenodd" clip-rule="evenodd" d="M285.661,29.828h2.15l9.528,21.422h-3.126l-2.836-6.312h-9.057l-2.683,6.312
		h-3.126L285.661,29.828L285.661,29.828z M290.128,42.223l-3.431-7.715l-3.187,7.715H290.128L290.128,42.223z"/>
	<path fill-rule="evenodd" clip-rule="evenodd" d="M299.419,51.25V29.919h6.754c2.032,0,3.653,0.549,4.863,1.647
		c1.209,1.098,1.813,2.572,1.813,4.421c0,1.24-0.31,2.338-0.929,3.293c-0.62,0.956-1.469,1.652-2.547,2.089
		c-1.077,0.427-2.622,0.64-4.635,0.64h-2.257v9.24H299.419L299.419,51.25z M305.64,32.633h-3.157v6.663h3.34
		c1.239,0,2.194-0.29,2.866-0.869c0.671-0.589,1.007-1.428,1.007-2.516C309.695,33.726,308.343,32.634,305.64,32.633L305.64,32.633z
		"/>
	<polygon points="315.402,29.95 327.478,29.95 327.478,32.664 318.451,32.664 318.451,39.159 327.172,39.159 327.172,41.888 
		318.451,41.888 318.451,48.505 327.767,48.505 327.767,51.218 315.402,51.218 315.402,29.95 	"/>
	<polygon points="119.733,55.569 328.035,55.569 328.035,57.364 119.733,57.364 119.733,55.569 	"/>
</g>
<g>
	<polygon points="119.759,61.208 127.021,61.208 127.021,62.428 121.074,62.428 121.074,65.453 126.573,65.453 126.573,66.605 
		121.074,66.605 121.074,69.981 127.122,69.981 127.122,71.167 119.759,71.167 119.759,61.208 	"/>
	<path fill-rule="evenodd" clip-rule="evenodd" d="M133.099,70.014c0.457,0,0.832-0.047,1.125-0.142
		c0.526-0.176,0.954-0.515,1.29-1.017c0.266-0.403,0.458-0.92,0.574-1.546c0.068-0.376,0.102-0.725,0.102-1.044
		c0-1.233-0.247-2.193-0.738-2.875c-0.487-0.684-1.278-1.023-2.367-1.023h-2.392v7.646H133.099L133.099,70.014z M129.335,61.208
		h4.035c1.37,0,2.432,0.484,3.187,1.457c0.675,0.877,1.009,2,1.012,3.369c0,1.058-0.201,2.015-0.599,2.868
		c-0.699,1.508-1.903,2.264-3.612,2.264h-4.022V61.208L129.335,61.208z"/>
	<path d="M141.151,61.208v6.155c0,0.723,0.135,1.324,0.406,1.804c0.402,0.722,1.08,1.085,2.034,1.085
		c1.143,0,1.921-0.393,2.333-1.173c0.22-0.426,0.332-0.997,0.332-1.716v-6.155h1.369v5.594c0,1.223-0.166,2.166-0.495,2.826
		c-0.607,1.201-1.749,1.802-3.43,1.803c-1.681,0-2.824-0.602-3.425-1.803c-0.33-0.66-0.494-1.604-0.494-2.826v-5.594H141.151
		L141.151,61.208z"/>
	<path d="M157.228,61.934c0.697,0.664,1.084,1.418,1.16,2.264h-1.315c-0.149-0.642-0.448-1.151-0.895-1.525
		c-0.442-0.376-1.066-0.563-1.872-0.563c-0.98,0-1.773,0.346-2.379,1.037c-0.602,0.686-0.902,1.742-0.902,3.166
		c0,1.166,0.271,2.112,0.813,2.841c0.548,0.722,1.362,1.085,2.441,1.085c0.995,0,1.75-0.383,2.271-1.146
		c0.277-0.403,0.482-0.933,0.617-1.587h1.315c-0.117,1.047-0.506,1.927-1.166,2.638c-0.791,0.854-1.858,1.28-3.199,1.28
		c-1.158,0-2.129-0.35-2.917-1.051c-1.036-0.927-1.552-2.357-1.552-4.291c0-1.469,0.388-2.674,1.167-3.613
		c0.84-1.022,2-1.532,3.479-1.532C155.554,60.937,156.533,61.269,157.228,61.934L157.228,61.934z"/>
	<path fill-rule="evenodd" clip-rule="evenodd" d="M165.619,67.085l-1.512-4.399l-1.607,4.399H165.619L165.619,67.085z
		 M163.401,61.208h1.526l3.613,9.958h-1.478l-1.011-2.982h-3.938l-1.078,2.982h-1.382L163.401,61.208L163.401,61.208z"/>
	<polygon points="176.372,61.208 176.372,62.395 173.016,62.395 173.016,71.167 171.646,71.167 171.646,62.395 168.29,62.395 
		168.29,61.208 176.372,61.208 	"/>
	<polygon points="178.295,61.208 179.657,61.208 179.657,71.167 178.295,71.167 178.295,61.208 	"/>
	<path fill-rule="evenodd" clip-rule="evenodd" d="M190.434,62.632c0.66,0.881,0.99,2.008,0.99,3.383
		c0,1.486-0.379,2.722-1.132,3.709c-0.887,1.155-2.149,1.733-3.791,1.734c-1.531,0-2.736-0.507-3.613-1.519
		c-0.782-0.977-1.173-2.21-1.173-3.701c0-1.347,0.334-2.499,1.004-3.458c0.857-1.229,2.129-1.844,3.81-1.844
		C188.286,60.937,189.588,61.501,190.434,62.632L190.434,62.632z M189.24,68.977c0.532-0.854,0.8-1.835,0.8-2.942
		c0-1.17-0.309-2.113-0.921-2.827c-0.61-0.715-1.446-1.071-2.51-1.071c-1.029,0-1.871,0.355-2.521,1.064
		c-0.651,0.705-0.977,1.746-0.977,3.126c0,1.102,0.278,2.034,0.833,2.794c0.559,0.753,1.467,1.132,2.72,1.132
		C187.852,70.252,188.711,69.827,189.24,68.977L189.24,68.977z"/>
	<polygon points="193.414,61.208 195.006,61.208 200.038,69.276 200.038,61.208 201.318,61.208 201.318,71.167 199.807,71.167 
		194.7,63.106 194.7,71.167 193.414,71.167 193.414,61.208 	"/>
</g>
</svg>
